<svg width="25" height="25" viewBox="0 0 25 25" fill="none" xmlns="http://www.w3.org/2000/svg">
<path d="M4.39793 20.602C4.88113 21.0859 5.45519 21.4696 6.08711 21.7309C6.71904 21.9923 7.39638 22.1262 8.08022 22.1249C8.76421 22.1261 9.4417 21.9922 10.0738 21.7309C10.7059 21.4695 11.2801 21.0859 11.7636 20.602L14.7094 17.6552L13.2365 16.1822L10.2906 19.1291C9.70363 19.7135 8.90904 20.0416 8.08074 20.0416C7.25244 20.0416 6.45785 19.7135 5.87084 19.1291C5.28595 18.5424 4.95752 17.7477 4.95752 16.9192C4.95752 16.0907 5.28595 15.2961 5.87084 14.7093L8.81772 11.7635L7.3448 10.2906L4.39793 13.2364C3.42273 14.214 2.87506 15.5384 2.87506 16.9192C2.87506 18.3 3.42273 19.6245 4.39793 20.602ZM20.6021 11.7635C21.5768 10.7857 22.1241 9.46132 22.1241 8.08068C22.1241 6.70004 21.5768 5.3757 20.6021 4.39787C19.6245 3.42266 18.3001 2.875 16.9193 2.875C15.5385 2.875 14.214 3.42266 13.2365 4.39787L10.2906 7.34474L11.7636 8.81766L14.7094 5.87078C15.2964 5.2864 16.091 4.95831 16.9193 4.95831C17.7476 4.95831 18.5422 5.2864 19.1292 5.87078C19.7141 6.45752 20.0425 7.25221 20.0425 8.08068C20.0425 8.90915 19.7141 9.70383 19.1292 10.2906L16.1823 13.2364L17.6552 14.7093L20.6021 11.7635Z" fill="#333333"/>
<path d="M8.81667 17.6563L7.34271 16.1833L16.1833 7.34375L17.6563 8.81771L8.81667 17.6563Z" fill="#333333"/>
</svg>
