<svg width="38" height="24" viewBox="0 0 38 24" fill="none" xmlns="http://www.w3.org/2000/svg">
<g clip-path="url(#clip0_261_9060)">
<path d="M22.0903 10.0366H19.6176V11.7826H22.0903V10.0366Z" fill="#666666"/>
<path d="M0.982437 7.42702L5.18192 6.58033C5.94762 5.91625 6.74246 5.32162 7.56164 4.80002C10.2675 3.06977 13.2042 2.17699 16.1747 2.18166H16.9042C20.4101 2.18528 23.8596 3.42713 26.9385 5.79409L29.0579 7.4263C31.5388 7.46593 33.9717 8.39702 36.1272 10.1318C36.5575 10.4801 36.9151 10.9825 37.1641 11.5882C37.4131 12.1939 37.5446 12.8815 37.5454 13.5818V18.7644C37.5454 18.879 37.5294 18.9925 37.4984 19.0984C37.4673 19.2043 37.4217 19.3006 37.3643 19.3816C37.3069 19.4627 37.2387 19.527 37.1637 19.5708C37.0887 19.6147 37.0083 19.6373 36.9271 19.6372H34.8512C34.1761 22.3565 32.0673 23.7884 30.1411 22.8353C29.6178 22.5764 29.1424 22.1544 28.7503 21.6008C28.3581 21.0472 28.0593 20.3761 27.8759 19.6372H11.3586C10.6835 22.3565 8.57469 23.7884 6.64853 22.8353C6.12519 22.5763 5.64983 22.1544 5.25769 21.6008C4.86556 21.0472 4.5667 20.3761 4.38325 19.6372H4.1614C4.08264 19.6372 4.00465 19.6163 3.9315 19.5751L1.92903 18.4408C1.49205 18.1965 1.11737 17.7719 0.853874 17.2225C0.590378 16.6731 0.450306 16.0243 0.451923 15.3608V8.29099C0.451973 8.08098 0.505634 7.87802 0.603069 7.71933C0.700504 7.56063 0.83519 7.45691 0.982437 7.42702ZM28.9404 18.5901C29.2139 20.479 30.5202 21.6976 31.8583 21.3114C33.1965 20.9254 34.0596 19.0812 33.7862 17.1919C33.5125 15.3028 32.2061 14.0844 30.8681 14.4704C29.7168 14.8025 28.8901 16.2326 28.8904 17.8918C28.8904 18.1264 28.9071 18.3603 28.9404 18.5901ZM17.7623 17.8918H27.6539C27.6539 14.9995 29.3145 12.6549 31.3632 12.6549C33.4119 12.6549 35.0726 14.9996 35.0726 17.8918H36.309V13.5819C36.3086 13.1891 36.2349 12.8033 36.0952 12.4636C35.9555 12.1239 35.7547 11.8422 35.5133 11.647C33.496 10.0209 31.2133 9.1651 28.8903 9.16396H17.7622L17.7623 17.8918ZM17.7623 7.41839H26.4656L26.3464 7.32647C23.7034 5.29864 20.7675 4.1491 17.7622 3.96542L17.7623 7.41839ZM16.5258 3.92705H16.176C13.6846 3.92311 11.2156 4.59091 8.9017 5.89455L9.98115 7.41848H16.5259L16.5258 3.92705ZM5.44782 18.5901C5.72126 20.479 7.02758 21.6976 8.36591 21.3114C9.70391 20.9254 10.567 19.0812 10.2935 17.1919C10.0201 15.3028 8.71353 14.0844 7.37552 14.4704C6.22408 14.8025 5.39753 16.2326 5.39779 17.8918C5.39782 18.1264 5.41459 18.3603 5.44782 18.5901ZM1.68837 10.0365H3.54305V11.7823H1.68837V15.3608C1.68761 15.675 1.75398 15.9822 1.87881 16.2423C2.00365 16.5024 2.18114 16.7034 2.38812 16.8189L4.1614 17.8243C4.1614 17.744 4.16868 17.6645 4.17241 17.5843C4.17621 17.5039 4.1775 17.4098 4.18349 17.3224C4.1898 17.2352 4.20217 17.1477 4.21196 17.0607C4.222 16.9734 4.22934 16.886 4.24158 16.8068C4.25394 16.7272 4.27204 16.6392 4.28814 16.5561C4.30424 16.4734 4.3166 16.3896 4.33515 16.3082C4.35357 16.2273 4.37598 16.1494 4.39684 16.0699C4.41796 15.9907 4.43709 15.9086 4.45866 15.8299C4.48037 15.7513 4.50954 15.6799 4.53542 15.6057C4.56138 15.5315 4.58675 15.4502 4.61567 15.3752C4.64484 15.3003 4.67756 15.2364 4.7055 15.1667C4.73319 15.0967 4.76713 15.0173 4.80236 14.9458C4.83778 14.8742 4.87049 14.8176 4.90449 14.7531C4.93843 14.6884 4.97694 14.6124 5.01642 14.5452C5.05589 14.4782 5.09286 14.4256 5.13137 14.3705C5.16962 14.3159 5.21238 14.2417 5.25489 14.1805C5.29765 14.1195 5.33963 14.0712 5.3822 14.0172C5.42496 13.9632 5.47075 13.8993 5.51776 13.8425C5.56458 13.786 5.61236 13.7423 5.65911 13.6925C5.70613 13.6429 5.7532 13.5896 5.80253 13.5431C5.85212 13.4969 5.90769 13.4561 5.96076 13.4071C6.01408 13.358 6.05735 13.3197 6.10739 13.2824C6.15749 13.2448 6.21983 13.2053 6.27676 13.167C6.33356 13.1286 6.37806 13.0945 6.43067 13.0633C6.48322 13.0317 6.55445 12.9987 6.61607 12.9674C6.6779 12.9358 6.71821 12.9113 6.77076 12.8879C6.84121 12.8573 6.9134 12.8353 6.98534 12.81C7.03235 12.7945 7.07743 12.7735 7.12495 12.7597C7.20094 12.7377 7.27886 12.7256 7.35614 12.7096C7.40187 12.701 7.44566 12.6868 7.49144 12.6808C7.61675 12.663 7.74261 12.6539 7.86856 12.6538C9.91643 12.6566 11.576 14.9995 11.578 17.8907H16.5256V9.16369H9.72529C9.64413 9.16373 9.56376 9.14117 9.48879 9.0973C9.41381 9.05343 9.3457 8.98911 9.28835 8.90804L7.68515 6.6447C7.01224 7.09681 6.35792 7.60213 5.72532 8.15826C5.65236 8.22263 5.57071 8.26486 5.48556 8.28227L1.6883 9.04759L1.68837 10.0365Z" fill="#666666"/>
</g>
<defs>
<clipPath id="clip0_261_9060">
<rect width="37.0909" height="24" fill="white" transform="matrix(-1 0 0 1 37.5454 0)"/>
</clipPath>
</defs>
</svg>
