<svg width="25" height="24" viewBox="0 0 25 24" fill="none" xmlns="http://www.w3.org/2000/svg">
<path d="M10.7278 16.593H4.42706" stroke="white" stroke-width="1.5" stroke-linecap="round" stroke-linejoin="round"/>
<path d="M13.5381 6.90039H19.8389" stroke="white" stroke-width="1.5" stroke-linecap="round" stroke-linejoin="round"/>
<path fill-rule="evenodd" clip-rule="evenodd" d="M9.12393 6.84625C9.12393 5.5506 8.06577 4.5 6.76079 4.5C5.4558 4.5 4.39764 5.5506 4.39764 6.84625C4.39764 8.14191 5.4558 9.19251 6.76079 9.19251C8.06577 9.19251 9.12393 8.14191 9.12393 6.84625Z" stroke="white" stroke-width="1.5" stroke-linecap="round" stroke-linejoin="round"/>
<path fill-rule="evenodd" clip-rule="evenodd" d="M20.3977 16.5538C20.3977 15.2581 19.3403 14.2075 18.0353 14.2075C16.7295 14.2075 15.6714 15.2581 15.6714 16.5538C15.6714 17.8494 16.7295 18.9 18.0353 18.9C19.3403 18.9 20.3977 17.8494 20.3977 16.5538Z" stroke="white" stroke-width="1.5" stroke-linecap="round" stroke-linejoin="round"/>
</svg>
