<svg width="24" height="25" viewBox="0 0 24 25" fill="none" xmlns="http://www.w3.org/2000/svg">
<path d="M8.28002 3.00064C8.91002 3.0198 9.52002 3.1298 10.111 3.3308H10.17C10.21 3.3498 10.24 3.3708 10.26 3.3898C10.481 3.4608 10.69 3.5408 10.89 3.6508L11.27 3.8208C11.42 3.9008 11.6 4.0498 11.7 4.1108C11.8 4.1698 11.91 4.2308 12 4.2998C13.111 3.4508 14.46 2.9908 15.85 3.00064C16.481 3.00064 17.111 3.0898 17.71 3.2908C21.401 4.4908 22.731 8.5408 21.62 12.0808C20.99 13.8898 19.96 15.5408 18.611 16.8898C16.68 18.7598 14.561 20.4198 12.28 21.8498L12.03 22.0008L11.77 21.8398C9.48102 20.4198 7.35002 18.7598 5.40102 16.8798C4.06102 15.5308 3.03002 13.8898 2.39002 12.0808C1.26002 8.5408 2.59002 4.4908 6.32102 3.2698C6.61102 3.1698 6.91002 3.0998 7.21002 3.0608H7.33002C7.61102 3.0198 7.89002 3.00064 8.17002 3.00064H8.28002ZM17.19 6.1608C16.78 6.0198 16.33 6.2408 16.18 6.6608C16.04 7.0808 16.26 7.5408 16.68 7.6898C17.321 7.9298 17.75 8.5608 17.75 9.2598V9.2908C17.731 9.5198 17.8 9.7408 17.94 9.9108C18.08 10.0808 18.29 10.1798 18.51 10.2008C18.92 10.1898 19.27 9.8608 19.3 9.4398V9.3208C19.33 7.9198 18.481 6.6508 17.19 6.1608Z" fill="#FF0000"/>
</svg>
