<svg width="40" height="40" viewBox="0 0 40 40" fill="none" xmlns="http://www.w3.org/2000/svg">
<path d="M35.8333 35H4.16667C3.062 34.9987 2.00296 34.5593 1.22185 33.7781C0.440735 32.997 0.00132321 31.938 0 30.8333L0 9.16667C0 6.87 1.87 5 4.16667 5H35.8333C38.13 5 40 6.87 40 9.16667V30.8333C40 33.13 38.13 35 35.8333 35ZM4.16667 6.66667C2.78833 6.66667 1.66667 7.78833 1.66667 9.16667V30.8333C1.66667 32.2117 2.78833 33.3333 4.16667 33.3333H35.8333C37.2117 33.3333 38.3333 32.2117 38.3333 30.8333V9.16667C38.3333 7.78833 37.2117 6.66667 35.8333 6.66667H4.16667Z" fill="white"/>
<path d="M12.5 20.0001C10.2033 20.0001 8.33333 18.1301 8.33333 15.8334C8.33333 13.5367 10.2033 11.6667 12.5 11.6667C14.7967 11.6667 16.6667 13.5367 16.6667 15.8334C16.6667 18.1301 14.7967 20.0001 12.5 20.0001ZM12.5 13.3334C11.1217 13.3334 10 14.4551 10 15.8334C10 17.2117 11.1217 18.3334 12.5 18.3334C13.8783 18.3334 15 17.2117 15 15.8334C15 14.4551 13.8783 13.3334 12.5 13.3334ZM19.1667 28.3334C18.9457 28.3334 18.7337 28.2456 18.5774 28.0893C18.4211 27.9331 18.3333 27.7211 18.3333 27.5001V25.8334C18.3333 24.4551 17.2117 23.3334 15.8333 23.3334H9.16667C7.78833 23.3334 6.66667 24.4551 6.66667 25.8334V27.5001C6.66667 27.7211 6.57887 27.9331 6.42259 28.0893C6.26631 28.2456 6.05435 28.3334 5.83333 28.3334C5.61232 28.3334 5.40036 28.2456 5.24408 28.0893C5.0878 27.9331 5 27.7211 5 27.5001V25.8334C5 23.5367 6.87 21.6667 9.16667 21.6667H15.8333C18.13 21.6667 20 23.5367 20 25.8334V27.5001C20 27.7211 19.9122 27.9331 19.7559 28.0893C19.5996 28.2456 19.3877 28.3334 19.1667 28.3334ZM34.1667 15.0001H24.1667C23.9457 15.0001 23.7337 14.9123 23.5774 14.756C23.4211 14.5997 23.3333 14.3878 23.3333 14.1667C23.3333 13.9457 23.4211 13.7338 23.5774 13.5775C23.7337 13.4212 23.9457 13.3334 24.1667 13.3334H34.1667C34.3877 13.3334 34.5996 13.4212 34.7559 13.5775C34.9122 13.7338 35 13.9457 35 14.1667C35 14.3878 34.9122 14.5997 34.7559 14.756C34.5996 14.9123 34.3877 15.0001 34.1667 15.0001ZM34.1667 21.6667H24.1667C23.9457 21.6667 23.7337 21.579 23.5774 21.4227C23.4211 21.2664 23.3333 21.0544 23.3333 20.8334C23.3333 20.6124 23.4211 20.4004 23.5774 20.2442C23.7337 20.0879 23.9457 20.0001 24.1667 20.0001H34.1667C34.3877 20.0001 34.5996 20.0879 34.7559 20.2442C34.9122 20.4004 35 20.6124 35 20.8334C35 21.0544 34.9122 21.2664 34.7559 21.4227C34.5996 21.579 34.3877 21.6667 34.1667 21.6667ZM34.1667 28.3334H24.1667C23.9457 28.3334 23.7337 28.2456 23.5774 28.0893C23.4211 27.9331 23.3333 27.7211 23.3333 27.5001C23.3333 27.2791 23.4211 27.0671 23.5774 26.9108C23.7337 26.7545 23.9457 26.6667 24.1667 26.6667H34.1667C34.3877 26.6667 34.5996 26.7545 34.7559 26.9108C34.9122 27.0671 35 27.2791 35 27.5001C35 27.7211 34.9122 27.9331 34.7559 28.0893C34.5996 28.2456 34.3877 28.3334 34.1667 28.3334Z" fill="white"/>
</svg>
