<svg width="45" height="45" viewBox="0 0 45 45" fill="none" xmlns="http://www.w3.org/2000/svg">
<rect width="45" height="45" rx="22.5" fill="#C12127"/>
<path d="M22.0909 26.1822C23.8984 26.1822 25.3636 24.7169 25.3636 22.9094C25.3636 21.102 23.8984 19.6367 22.0909 19.6367C20.2834 19.6367 18.8182 21.102 18.8182 22.9094C18.8182 24.7169 20.2834 26.1822 22.0909 26.1822Z" fill="white"/>
<path d="M22.9091 16.4204V14.7275H21.2728V16.4204C19.833 16.6042 18.495 17.2608 17.4687 18.2871C16.4424 19.3134 15.7858 20.6514 15.6019 22.0912H13.9091V23.7275H15.6019C15.7855 25.1674 16.442 26.5055 17.4684 27.5319C18.4947 28.5583 19.8329 29.2148 21.2728 29.3984V31.0912H22.9091V29.3984C24.349 29.2149 25.6873 28.5585 26.7137 27.5321C27.7401 26.5057 28.3965 25.1675 28.5799 23.7275H30.2728V22.0912H28.5799C28.3964 20.6513 27.7399 19.3132 26.7135 18.2868C25.6871 17.2604 24.349 16.6039 22.9091 16.4204ZM22.0909 27.8184C19.3836 27.8184 17.1818 25.6167 17.1818 22.9094C17.1818 20.202 19.3836 18.0003 22.0909 18.0003C24.7983 18.0003 27 20.202 27 22.9094C27 25.6167 24.7983 27.8184 22.0909 27.8184Z" fill="white"/>
</svg>
