<svg width="250" height="90" viewBox="0 0 250 90" fill="none" xmlns="http://www.w3.org/2000/svg">
<g clip-path="url(#clip0_235_2574)">
<path d="M203.188 37.4071C193.326 35.8299 183.126 34.197 176.963 29.5269C148.423 6.43476 130.964 2.97548 111.108 0.853L110.976 0.84128C84.9444 -0.735919 64.6829 -0.645041 50.3821 4.92499C45.7493 6.73085 41.5014 9.86767 38.0995 14.0012C26.9303 27.5686 16.4896 30.6761 9.62709 34.6924C0.232265 40.195 -1.0192 60.3146 0.831559 70.2966C5.01487 56.2572 8.05834 46.5243 16.8098 41.3999C23.7017 37.366 33.4109 34.6895 41.1547 24.596C43.4461 21.6087 45.7287 19.2517 48.1347 17.3872C56.2898 11.0696 67.0918 8.00023 81.1547 8.00023H81.3545C119.621 6.01847 142.045 16.5429 167.847 35.3843C172.712 38.9344 177.941 41.523 183.393 43.0709C189.233 44.7302 195.309 45.6595 201.187 46.5625C217.28 49.0279 231.175 51.1563 234.521 67.0221L239.136 88.9064L240.153 66.5677C241.205 43.4931 221.002 40.2625 203.179 37.4129L203.188 37.4071Z" fill="#FF2C2C"/>
<path d="M48.7213 68.6321C48.7213 80.9214 40.4899 89.3233 28.3042 89.3233H13.4393V47.938H28.3042C40.4899 47.938 48.7213 56.3429 48.7213 68.6292V68.6321ZM41.6385 68.6321C41.5739 58.1898 33.6626 54.8155 28.3042 54.8155H20.5192V82.4487H28.3042C33.6626 82.4487 41.7031 79.139 41.6385 68.6321Z" fill="white"/>
<path d="M72.3289 59.5911V66.0201C68.8829 66.0845 61.994 67.1663 61.994 75.1256V89.3233H55.1667V60.0367H61.994V65.3223C64.4176 61.3119 68.3747 59.6556 72.3289 59.5911Z" fill="white"/>
<path d="M77.8164 51.1862C77.8164 48.7676 79.7289 47.4308 81.6443 47.4308C83.5597 47.4308 85.5367 48.7676 85.5367 51.1862C85.5367 53.6047 83.5597 55.0705 81.6443 55.0705C79.7289 55.0705 77.8164 53.6047 77.8164 51.1862ZM78.1983 89.3233V60.0367H85.1519L85.0873 89.3233H78.1954H78.1983Z" fill="white"/>
<path d="M90.3842 60.0366H97.467L105.252 80.0272L113.163 60.0366H120.308L108.633 89.3233H101.935L90.3871 60.0366H90.3842Z" fill="white"/>
<path d="M151.442 74.68V76.5914H129.368C130.07 81.1765 133.322 84.0406 137.661 84.0406C141.744 84.0406 144.103 82.1937 145.317 80.4758L150.038 83.9146C147.485 87.6084 143.019 89.9009 137.661 89.9009C128.727 89.9009 122.731 83.4074 122.731 74.683C122.731 65.9585 128.475 59.5295 137.341 59.5295C146.207 59.5295 151.442 65.9615 151.442 74.683V74.68ZM129.432 72.197H145.064C144.297 68.0576 141.683 64.9383 137.344 64.9383C133.005 64.9383 130.199 67.8025 129.432 72.197Z" fill="white"/>
<path d="M157.123 68.6321C157.123 56.3428 165.672 47.4308 177.987 47.4308C190.302 47.4308 198.721 56.3458 198.721 68.6321C198.721 80.9184 190.299 89.8334 177.987 89.8334C165.675 89.8334 157.123 80.9184 157.123 68.6321ZM191.574 68.6321C191.574 60.4823 186.215 54.4989 177.984 54.4989C169.752 54.4989 164.203 60.4852 164.203 68.6321C164.203 76.779 169.752 82.7653 177.984 82.7653C186.215 82.7653 191.574 76.779 191.574 68.6321Z" fill="#FF2C2C"/>
<path d="M232.088 71.3702V89.3233H225.196V72.3875C225.196 67.1018 221.495 65.3839 218.498 65.3839C215.502 65.3839 211.926 67.1018 211.926 72.3875V89.3233H205.099V60.0367H211.926V63.1559C214.159 60.5468 217.414 59.5911 220.54 59.5911C226.027 59.5911 232.088 62.6458 232.088 71.3702Z" fill="#FF2C2C"/>
</g>
<defs>
<clipPath id="clip0_235_2574">
<rect width="250" height="90" fill="white"/>
</clipPath>
</defs>
</svg>
