<svg width="20" height="20" viewBox="0 0 20 20" fill="none" xmlns="http://www.w3.org/2000/svg">
<path d="M2.02996 4.2887C1.66663 4.70203 1.66663 5.41203 1.66663 6.83036V14.6587C1.66663 15.6637 1.66663 16.1662 1.92913 16.5445C2.19079 16.9229 2.64913 17.082 3.56579 17.3995L4.64413 17.7737C5.22829 17.9762 5.67746 18.132 6.05496 18.232C6.30163 18.2979 6.52746 18.1045 6.52746 17.8495V5.22453C6.52458 5.12332 6.48827 5.02592 6.42419 4.94753C6.36012 4.86914 6.2719 4.81416 6.17329 4.7912C5.84913 4.7087 5.45913 4.5737 4.92496 4.3887C3.63079 3.93953 2.98329 3.71536 2.49163 3.94286C2.31527 4.02463 2.15801 4.14244 2.02996 4.2887ZM10.5166 2.90036L9.23663 3.78786C8.77413 4.1087 8.43413 4.34453 8.14496 4.51203C8.07682 4.55009 8.01987 4.60538 7.9798 4.67236C7.93973 4.73933 7.91795 4.81566 7.91663 4.8937V17.4329C7.91663 17.7412 8.23663 17.9345 8.49663 17.7679C8.77579 17.5895 9.09579 17.3679 9.48329 17.0995L10.7633 16.212C11.2258 15.8912 11.5658 15.6554 11.855 15.4879C11.9231 15.4498 11.98 15.3945 12.0201 15.3275C12.0602 15.2606 12.082 15.1842 12.0833 15.1062V2.5662C12.0833 2.25703 11.7633 2.06453 11.5033 2.23036C11.2241 2.40953 10.9041 2.6312 10.5166 2.90036ZM16.4333 2.59953L15.3558 2.2262C14.7716 2.0237 14.3225 1.86786 13.945 1.76786C13.6983 1.70203 13.4725 1.89536 13.4725 2.15036V14.7754C13.4753 14.8766 13.5117 14.974 13.5757 15.0524C13.6398 15.1308 13.728 15.1857 13.8266 15.2087C14.1508 15.2912 14.5408 15.4254 15.075 15.6112C16.3691 16.0604 17.0166 16.2845 17.5083 16.057C17.6846 15.9753 17.8419 15.8575 17.97 15.7112C18.3333 15.2979 18.3333 14.5879 18.3333 13.1695V5.3412C18.3333 4.3362 18.3333 3.83286 18.0708 3.45536C17.8091 3.07703 17.3508 2.91786 16.4341 2.60036" fill="#C12127"/>
</svg>
