<svg width="370" height="248" viewBox="0 0 370 248" fill="none" xmlns="http://www.w3.org/2000/svg">
<path d="M329.04 74.8079L324.319 97.671L321.282 94.7085L316.111 98.3947L312.16 93.4904L303.297 99.9334L295.728 87.269L287.28 92.2162L283.931 87.5971L273.206 93.6404L269.979 86.7323L277.496 50.3188L317.804 58.6409L329.04 74.8079Z" fill="#292727"/>
<path d="M317.804 58.6375L329.042 74.8025L315.062 71.9165L317.804 58.6375Z" fill="#DBDBDB"/>
<path d="M323.302 102.237L316.378 135.781L262.089 124.575L268.961 91.2983L272.189 98.206L282.915 92.1627L286.264 96.7822L294.712 91.8351L302.28 104.499L311.144 98.056L315.094 102.96L320.266 99.2746L323.302 102.237Z" fill="#292727"/>
<path d="M245.597 98.3062L190.27 101.73L185.875 30.7067L226.955 28.1646L242.04 40.8161L245.597 98.3062Z" fill="#292727"/>
<path d="M226.947 28.1711L242.031 40.8227L227.784 41.7043L226.947 28.1711Z" fill="#DBDBDB"/>
<path d="M211.622 75.9561L211.408 74.3542C210.849 71.0336 211.759 67.3203 214.645 63.4348C217.245 59.9992 218.657 57.499 218.502 54.7151C218.325 51.5593 216.227 49.5662 212.325 49.7226C210.097 49.8474 207.664 50.7285 206.182 51.9909L204.479 48.1755C206.438 46.5761 209.91 45.3887 213.189 45.2046C220.305 44.806 223.768 49.0196 224.031 53.7216C224.267 57.9297 222.086 61.0929 219.313 64.7865C216.771 68.1565 215.933 70.9349 216.296 74.0799L216.448 75.6853L211.622 75.9561ZM210.746 84.695C210.618 82.4054 212.074 80.7099 214.24 80.5885C216.405 80.4671 217.981 81.993 218.109 84.2826C218.23 86.4483 216.901 88.1987 214.611 88.3269C212.446 88.4483 210.867 86.8607 210.746 84.695Z" fill="#DBDBDB"/>
<path d="M73.2498 63.8806L67.6821 61.3557L66.91 63.0607C66.6831 63.5619 66.1912 63.8821 65.6412 63.9062C65.3373 63.9196 65.0334 63.9497 64.731 63.9955C64.1883 64.0784 63.6446 63.8599 63.325 63.4139L62.2352 61.8925L57.2639 65.4543L58.3536 66.9753C58.6733 67.4217 58.7054 68.0063 58.4528 68.4938C58.3117 68.7651 58.1859 69.0433 58.0754 69.327C57.8756 69.8401 57.4143 70.2027 56.8667 70.2564L55.0039 70.439L55.6043 76.5228L57.4735 76.3368C58.0216 76.282 58.5401 76.5548 58.8376 77.0185C58.9185 77.1444 59.0029 77.2687 59.0902 77.391C59.178 77.5134 59.2683 77.6332 59.3615 77.7502C59.7029 78.1789 59.7947 78.7546 59.5687 79.2538L58.7912 80.9711L64.359 83.496L65.1345 81.7876C65.3619 81.2864 65.8548 80.9667 66.4048 80.943C66.7077 80.9302 67.0102 80.9006 67.3116 80.8552C67.8538 80.7733 68.3964 80.9914 68.7161 81.4373L69.8064 82.9593L74.7777 79.3974L73.6874 77.8755C73.3682 77.4295 73.3357 76.8454 73.5878 76.3585C73.7279 76.0881 73.8527 75.8109 73.9622 75.5282C74.1615 75.0151 74.6223 74.6515 75.1704 74.5973L77.0372 74.4123L76.4368 68.3285L74.569 68.513C74.0229 68.5668 73.5059 68.2949 73.2094 67.8327C73.128 67.7064 73.0431 67.5811 72.9548 67.4573C72.867 67.3349 72.7767 67.215 72.6835 67.0981C72.3401 66.6674 72.2484 66.0888 72.4758 65.587L73.2498 63.8806ZM70.0915 69.509C71.7022 71.7571 71.1857 74.8824 68.9381 76.4931C66.69 78.1039 63.5608 77.5903 61.95 75.3422C60.3393 73.0941 60.8568 69.9619 63.1049 68.3512C65.3526 66.7409 68.4808 67.2614 70.0915 69.509Z" fill="#292727"/>
<path d="M324.803 144.581L321.093 146.721L321.749 147.857C321.942 148.191 321.924 148.601 321.713 148.924C321.597 149.103 321.49 149.288 321.393 149.479C321.219 149.821 320.872 150.042 320.488 150.042H319.177V154.326H320.488C320.872 154.326 321.219 154.547 321.393 154.89C321.49 155.08 321.597 155.265 321.713 155.444C321.924 155.767 321.943 156.178 321.749 156.512L321.093 157.647L324.803 159.787L325.46 158.647C325.652 158.312 326.019 158.128 326.405 158.148C326.509 158.153 326.614 158.156 326.72 158.156C326.825 158.156 326.93 158.153 327.035 158.148C327.419 158.128 327.784 158.311 327.976 158.643L328.636 159.787L332.346 157.646L331.689 156.508C331.496 156.174 331.516 155.763 331.727 155.44C331.843 155.262 331.95 155.078 332.046 154.888C332.221 154.546 332.567 154.326 332.951 154.326H334.262V150.042H332.951C332.567 150.042 332.221 149.822 332.046 149.479C331.95 149.289 331.843 149.105 331.727 148.927C331.516 148.604 331.497 148.194 331.689 147.859L332.346 146.72L328.636 144.58L327.979 145.719C327.787 146.052 327.421 146.235 327.037 146.216C326.932 146.21 326.826 146.208 326.719 146.208C326.614 146.208 326.509 146.21 326.404 146.216C326.019 146.235 325.652 146.051 325.459 145.717L324.803 144.581ZM326.72 148.676C328.658 148.676 330.227 150.245 330.227 152.183C330.227 154.12 328.658 155.693 326.72 155.693C324.783 155.693 323.21 154.12 323.21 152.183C323.21 150.245 324.783 148.676 326.72 148.676Z" fill="#292727"/>
<path d="M84.5099 45.6425L81.1078 48.2439L81.9046 49.2848C82.1389 49.5912 82.1734 50.0006 82.0067 50.3479C81.914 50.5398 81.8321 50.7372 81.7605 50.9395C81.6323 51.3016 81.317 51.565 80.9357 51.6148L79.6357 51.784L80.1888 56.0326L81.4887 55.8634C81.87 55.8136 82.242 55.9877 82.4586 56.3049C82.5795 56.4821 82.7092 56.6518 82.8478 56.8136C83.0984 57.1066 83.1695 57.5116 83.0215 57.8673L82.5178 59.078L86.4724 60.7218L86.976 59.5062C87.124 59.15 87.464 58.9201 87.8488 58.8895C87.9533 58.8811 88.0579 58.8703 88.1625 58.857C88.2671 58.8431 88.3712 58.8274 88.4738 58.8081C88.8517 58.739 89.2375 58.8732 89.4708 59.1781L90.2735 60.2269L93.676 57.6256L92.8783 56.5812C92.644 56.2748 92.6099 55.8649 92.7776 55.5176C92.8699 55.3262 92.9518 55.1298 93.0233 54.9285C93.1521 54.5669 93.4668 54.304 93.8477 54.2542L95.1481 54.0849L94.5951 49.8364L93.2947 50.0056C92.9138 50.0554 92.5423 49.8817 92.3253 49.5645C92.2049 49.3884 92.0751 49.2197 91.937 49.0584C91.6859 48.7653 91.6139 48.3603 91.7619 48.0041L92.2661 46.7905L88.311 45.1467L87.8063 46.3608C87.6588 46.716 87.3194 46.9449 86.9361 46.975C86.8315 46.9834 86.7259 46.9943 86.6199 47.0081C86.5153 47.0219 86.4112 47.0377 86.3081 47.0564C85.9282 47.126 85.5409 46.9908 85.3061 46.684L84.5099 45.6425ZM86.939 49.456C88.8601 49.2059 90.6188 50.5596 90.8689 52.4806C91.1191 54.4017 89.7658 56.1639 87.8448 56.414C85.9238 56.6641 84.1611 55.3074 83.911 53.3864C83.6608 51.4653 85.018 49.7061 86.939 49.456Z" fill="#292727"/>
<path d="M59.1106 156.949C59.3049 152.175 59.227 147.392 58.9142 142.625C58.2689 132.792 56.6503 123.036 54.4274 113.442C53.1763 108.042 51.6351 102.733 50.0298 97.4295C49.9814 97.2692 49.7259 97.3146 49.7703 97.4813C54.7352 116.177 58.8087 135.47 58.5284 154.903C58.45 160.342 57.8205 165.684 57.304 171.089C57.2902 171.233 57.528 171.291 57.561 171.142C58.5852 166.518 58.9182 161.672 59.1106 156.949Z" fill="#EBEBEB"/>
<path d="M49.7698 97.4817C49.7698 97.4817 42.2485 116.573 43.9322 121.06C45.6165 125.547 49.0881 126.504 49.0881 126.504C49.0881 126.504 44.4862 133.075 47.7018 139.237C50.9178 145.399 58.0628 145.108 58.5374 152.095C58.5374 152.095 58.9355 122.88 49.7698 97.4817Z" fill="#292727"/>
<path d="M57.7194 140.032C57.7288 140 57.7263 139.966 57.7115 139.932C56.6553 126.95 54.3524 114.01 50.4161 101.527C50.4048 101.49 50.3441 101.502 50.354 101.54C51.8443 107.125 53.1704 112.74 54.3036 118.385C53.3268 117.379 52.0491 116.801 50.7131 116.383C50.688 116.375 50.6756 116.411 50.6993 116.421C52.0905 117.023 53.423 117.72 54.4062 118.898C54.6257 120.005 54.8408 121.112 55.0451 122.22C53.3643 120.342 51.0333 119.41 48.7008 118.524C48.6678 118.512 48.6505 118.562 48.6826 118.575C51.1117 119.564 53.5315 120.839 55.1773 122.932C55.751 126.1 56.2533 129.28 56.6879 132.468C55.459 131.185 53.9425 130.322 52.203 129.898C52.1507 129.885 52.1216 129.963 52.1744 129.978C53.9617 130.493 55.4989 131.493 56.7229 132.892C56.7318 132.902 56.7412 132.907 56.751 132.913C56.9015 134.035 57.0436 135.158 57.1768 136.283C56.2306 135.476 55.1847 134.862 54.0333 134.387C54.0027 134.374 53.9864 134.422 54.016 134.434C55.1857 134.932 56.238 135.65 57.1644 136.518C57.1778 136.531 57.1911 136.529 57.2044 136.534C57.3297 137.603 57.4545 138.673 57.5626 139.744C55.8384 137.666 53.7062 136.163 51.1833 135.189C51.1339 135.17 51.1088 135.245 51.1561 135.266C53.609 136.333 55.7713 138.022 57.4432 140.104C57.4891 140.161 57.5487 140.17 57.6015 140.154C57.7643 141.796 57.9099 143.442 58.0302 145.09C58.0317 145.113 58.0687 145.115 58.0677 145.092C57.9735 143.405 57.8556 141.718 57.7194 140.032Z" fill="#292727"/>
<path d="M51.6854 114.484C50.3811 113.588 48.7235 113.205 47.1665 113.075C47.129 113.072 47.1261 113.128 47.1626 113.133C48.7822 113.373 50.1428 113.959 51.6307 114.592C51.6953 114.62 51.7417 114.523 51.6854 114.484Z" fill="white"/>
<path d="M52.5985 134.7C51.5664 134.081 50.3889 133.731 49.2063 133.54C49.1649 133.534 49.1614 133.597 49.2019 133.604C50.4027 133.822 51.4663 134.249 52.5576 134.781C52.6039 134.804 52.6424 134.727 52.5985 134.7Z" fill="white"/>
<path d="M78.8836 121.372C75.747 123.577 72.7367 126.12 70.1783 128.981C67.4511 132.031 65.462 135.493 64.0728 139.335C61.2267 147.206 59.6668 155.733 59.5247 164.099C59.4448 168.788 59.8622 173.441 60.8656 178.025C60.9021 178.192 61.1512 178.144 61.1261 177.976C59.8997 169.912 59.9446 161.682 61.2622 153.633C62.5553 145.735 64.5844 137.143 69.6045 130.725C72.3381 127.23 75.7465 124.48 79.116 121.638C79.2921 121.489 79.0657 121.243 78.8836 121.372Z" fill="#EBEBEB"/>
<path d="M60.6309 158.412C60.6309 158.412 63.214 154.062 66.9766 150.3C70.7393 146.539 73.9084 143.865 74.3973 141.377C74.8867 138.889 70.6283 137.057 70.6283 137.057C70.6283 137.057 75.8354 137.992 77.2601 135.807C78.6849 133.622 79.3726 120.965 79.3726 120.965C79.3726 120.965 69.9001 127.728 65.4862 137.208C61.0729 146.688 60.6309 158.412 60.6309 158.412Z" fill="#292727"/>
<path d="M76.0952 124.209C72.1096 128.124 68.0983 132.296 65.751 137.439C64.9464 139.202 64.2616 141.03 63.6588 142.893C63.6573 142.896 63.6573 142.899 63.6558 142.902C63.5349 143.276 63.4121 143.649 63.2981 144.026C63.2868 144.044 63.2809 144.065 63.2789 144.087C62.1186 147.928 61.2982 151.9 60.5878 155.78C60.5833 155.805 60.6213 155.819 60.6262 155.793C61.0342 153.818 61.4846 151.824 61.9873 149.836C62.0051 149.836 62.0243 149.833 62.0441 149.824C62.8497 149.486 63.6602 149.274 64.53 149.193C64.5867 149.188 64.5823 149.09 64.5246 149.093C63.6854 149.133 62.8635 149.28 62.0658 149.541C62.5246 147.748 63.0233 145.96 63.5843 144.199C65.4131 143.751 67.3218 143.509 69.2023 143.464C69.2216 143.464 69.225 143.435 69.2048 143.434C67.3089 143.345 65.527 143.509 63.6805 143.903C63.7781 143.6 63.8798 143.3 63.9809 142.998C65.2157 142.717 66.456 142.48 67.7194 142.365C67.7421 142.363 67.7401 142.324 67.7174 142.325C66.4801 142.358 65.2606 142.488 64.0569 142.769C64.5724 141.245 65.1294 139.741 65.747 138.276C66.2581 137.065 66.8659 135.914 67.5354 134.804C68.5482 134.574 69.5299 134.356 70.5679 134.263C70.5965 134.26 70.5935 134.215 70.5654 134.213C69.6232 134.151 68.6419 134.222 67.7302 134.493C68.2285 133.688 68.7519 132.9 69.3124 132.136C71.4367 131.666 73.5901 131.229 75.7632 131.637C75.8007 131.644 75.8145 131.581 75.7775 131.571C73.7089 131.027 71.6557 131.341 69.5975 131.748C69.822 131.449 70.0519 131.154 70.2837 130.861C71.5876 130.458 72.8846 130.263 74.2526 130.237C74.2807 130.237 74.2852 130.196 74.2561 130.193C73.0074 130.074 71.7623 130.195 70.5556 130.522C72.3118 128.34 74.2516 126.291 76.1692 124.264C76.259 124.171 76.1899 124.117 76.0952 124.209Z" fill="white"/>
<path d="M75.9896 132.837C75.366 132.77 74.7321 132.7 74.1056 132.771C74.0296 132.779 74.036 132.903 74.1125 132.905C74.7361 132.923 75.3596 132.877 75.9832 132.911C76.0311 132.914 76.037 132.842 75.9896 132.837Z" fill="white"/>
<path d="M69.1715 145.115C68.1759 145.103 67.1819 145.37 66.2519 145.701C66.2288 145.709 66.2416 145.748 66.2658 145.742C67.2297 145.513 68.205 145.42 69.1789 145.259C69.2588 145.246 69.2549 145.116 69.1715 145.115Z" fill="white"/>
<path d="M67.128 140.873C66.7239 140.852 66.2868 140.923 65.8887 140.985C65.8478 140.992 65.8502 141.058 65.8927 141.059C66.2952 141.066 66.7382 141.077 67.1349 141.001C67.2049 140.987 67.202 140.877 67.128 140.873Z" fill="white"/>
<path d="M32.862 134.803C35.9103 135.862 38.934 137.225 41.6661 138.949C44.5782 140.787 46.9881 143.129 49.0005 145.917C53.1227 151.629 56.3561 158.169 58.4049 164.906C59.5533 168.683 60.2914 172.545 60.5385 176.486C60.5474 176.63 60.3348 176.649 60.3165 176.507C59.4448 169.697 57.5065 163.048 54.5796 156.837C51.7079 150.745 48.0799 144.26 42.5333 140.226C39.5132 138.03 36.1195 136.593 32.7357 135.072C32.5586 134.992 32.6849 134.742 32.862 134.803Z" fill="#EBEBEB"/>
<path d="M56.1951 160.56C56.1951 160.56 53.099 157.637 49.1849 155.462C45.2703 153.288 42.0878 151.857 41.1169 149.956C40.146 148.056 43.1687 145.589 43.1687 145.589C43.1687 145.589 39.1707 147.549 37.5126 146.11C35.8545 144.671 32.3726 134.587 32.3726 134.587C32.3726 134.587 41.6018 137.871 47.3645 144.523C53.1276 151.175 56.1951 160.56 56.1951 160.56Z" fill="#292727"/>
<path d="M55.7143 158.481C51.0982 149.816 44.939 141.978 36.499 136.805C36.4951 136.802 36.4916 136.808 36.4951 136.81C38.717 138.226 40.7644 139.859 42.6726 141.644C40.9642 141.597 39.2252 141.869 37.7106 142.691C37.6771 142.71 37.7013 142.755 37.7358 142.743C39.424 142.172 41.0456 141.797 42.8413 141.88C42.866 141.881 42.8818 141.869 42.899 141.859C43.1985 142.143 43.494 142.432 43.7865 142.723C42.8985 142.761 42.0002 142.886 41.1349 143.074C41.1117 143.079 41.1181 143.115 41.1418 143.111C42.0781 142.93 42.9923 142.867 43.9424 142.88C45.489 144.434 46.9301 146.096 48.2956 147.823C47.6789 147.733 47.0327 147.785 46.4417 147.957C46.3978 147.97 46.4091 148.033 46.455 148.027C47.1274 147.943 47.7668 147.953 48.4342 148C48.6868 148.322 48.9424 148.642 49.19 148.967C47.2922 148.853 45.4328 149.035 43.5887 149.512C43.5616 149.519 43.569 149.561 43.5971 149.555C45.4994 149.182 47.4175 149.062 49.3504 149.181C49.5857 149.494 49.8087 149.815 50.0395 150.13C48.9073 150.096 47.8092 150.238 46.7051 150.512C46.6632 150.523 46.675 150.589 46.7179 150.579C47.8536 150.32 49.0085 150.255 50.1693 150.31C51.1624 151.678 52.1135 153.077 53.0277 154.492C52.5437 154.392 52.0356 154.447 51.5639 154.58C51.5388 154.587 51.5457 154.623 51.5718 154.62C52.115 154.556 52.6221 154.626 53.1554 154.695C53.9773 155.974 54.7721 157.267 55.5333 158.567C55.5984 158.677 55.7755 158.596 55.7143 158.481Z" fill="white"/>
<path d="M48.5338 151.293C47.6315 151.216 46.7144 151.357 45.8526 151.621C45.8279 151.629 45.8338 151.666 45.8604 151.661C46.748 151.498 47.6276 151.436 48.5269 151.388C48.5856 151.385 48.597 151.299 48.5338 151.293Z" fill="white"/>
<path d="M40.4834 140.735C40.0755 140.688 39.6497 140.742 39.2467 140.807C39.1988 140.815 39.2136 140.885 39.261 140.88C39.6675 140.837 40.0686 140.852 40.4756 140.84C40.5417 140.838 40.5525 140.743 40.4834 140.735Z" fill="white"/>
<path d="M68.0991 189.211H47.2661L50.2365 167.451L50.9957 161.872H64.3695L65.1282 167.451L68.0991 189.211Z" fill="#292727"/>
<path d="M65.1281 167.451H50.2363L50.9956 161.872H64.3693L65.1281 167.451Z" fill="#C7C7C7"/>
<path d="M66.2816 159.937H49.083V164.662H66.2816V159.937Z" fill="#DBDBDB"/>
<path d="M34.0225 189.211L71.5202 189.091L109.018 189.048L184.014 188.965L259.009 189.047L296.507 189.091L334.005 189.211L296.507 189.332L259.009 189.376L184.014 189.457L109.018 189.375L71.5202 189.331L34.0225 189.211Z" fill="#263238"/>
<path d="M185 225.981C263.126 225.981 326.459 219.041 326.459 210.481C326.459 201.92 263.126 194.98 185 194.98C106.874 194.98 43.5405 201.92 43.5405 210.481C43.5405 219.041 106.874 225.981 185 225.981Z" fill="#292727"/>
<path d="M152.07 207.912C150.92 208.301 117.959 208.417 116.699 207.627C116.219 207.33 115.923 202.531 115.728 196.721C115.686 195.467 115.65 194.171 115.622 192.855L112.949 175.274L134.983 175.133L137.063 192.718L136.979 196.585C136.979 196.585 149.619 202.186 150.907 203.201C152.19 204.215 153.221 207.523 152.07 207.912Z" fill="#EB9481"/>
<path d="M152.07 207.912C150.92 208.301 117.959 208.417 116.699 207.627C116.116 207.263 115.799 200.253 115.622 192.855L137.063 192.717L136.979 196.585C136.979 196.585 149.619 202.185 150.907 203.2C152.19 204.215 153.22 207.523 152.07 207.912Z" fill="white"/>
<path d="M152.066 207.922C150.916 208.311 117.954 208.427 116.694 207.637C116.214 207.34 115.918 202.54 115.724 196.731L136.974 196.595C136.974 196.595 149.614 202.195 150.903 203.21C152.185 204.225 153.216 207.532 152.066 207.922Z" fill="#A6A6A6"/>
<path d="M151.598 206.598C146.073 206.482 123.774 206.534 118.303 206.839C118.259 206.842 118.259 206.872 118.303 206.874C123.778 207.109 146.075 206.876 151.599 206.688C151.715 206.685 151.715 206.601 151.598 206.598Z" fill="#263238"/>
<path d="M148.789 202.024C147.479 201.975 146.2 202.602 145.488 203.385C144.804 204.138 144.221 205.194 144.263 206.34C144.265 206.372 144.326 206.373 144.33 206.339C144.638 204.176 146.598 202.27 148.789 202.094C148.834 202.09 148.834 202.026 148.789 202.024Z" fill="#263238"/>
<path d="M139.13 197.13C136.919 197.107 134.357 197.897 132.989 199.71C132.937 199.78 133.037 199.855 133.102 199.82C135.098 198.783 136.996 198.008 139.169 197.402C139.323 197.359 139.289 197.131 139.13 197.13Z" fill="#263238"/>
<path d="M140.84 197.79C138.628 197.767 136.067 198.557 134.699 200.37C134.646 200.441 134.747 200.515 134.812 200.481C136.807 199.443 138.705 198.669 140.878 198.062C141.032 198.019 140.998 197.792 140.84 197.79Z" fill="#263238"/>
<path d="M142.549 198.449C140.337 198.427 137.776 199.216 136.408 201.029C136.355 201.099 136.456 201.174 136.521 201.14C138.517 200.102 140.414 199.328 142.588 198.722C142.741 198.679 142.707 198.451 142.549 198.449Z" fill="#263238"/>
<path d="M144.259 199.109C142.047 199.086 139.486 199.876 138.118 201.689C138.065 201.759 138.165 201.834 138.231 201.8C140.227 200.762 142.124 199.988 144.298 199.381C144.451 199.338 144.417 199.11 144.259 199.109Z" fill="#263238"/>
<path d="M119.692 201.586C117.211 201.602 117.232 205.459 119.717 205.442C122.198 205.427 122.178 201.571 119.692 201.586Z" fill="#263238"/>
<path d="M141.5 191.22C140.377 190.296 138.97 191.208 138.283 192.174C137.171 193.739 136.41 195.93 136.294 197.837C136.291 197.884 136.327 197.902 136.363 197.9C136.41 198.058 136.598 198.19 136.761 198.077C138.332 196.982 140.147 196.007 141.334 194.463C142.028 193.561 142.561 192.094 141.5 191.22ZM138.803 195.93C138.043 196.487 137.261 197.003 136.522 197.589C136.914 196.485 137.255 195.371 137.757 194.307C137.997 193.8 138.253 193.283 138.56 192.813C139.038 192.081 141.202 190.225 141.431 192.63C141.556 193.956 139.708 195.265 138.803 195.93Z" fill="#263238"/>
<path d="M130.802 198.676C132.728 198.965 134.713 198.409 136.603 198.109C136.8 198.078 136.843 197.853 136.768 197.705C136.796 197.682 136.809 197.644 136.774 197.612C135.368 196.319 133.301 195.267 131.414 194.911C130.25 194.691 128.603 195.009 128.435 196.454C128.276 197.82 129.677 198.507 130.802 198.676ZM129.462 197.422C127.959 195.53 130.805 195.367 131.657 195.563C132.205 195.69 132.747 195.884 133.272 196.084C134.371 196.502 135.39 197.068 136.437 197.592C135.499 197.683 134.577 197.853 133.643 197.978C132.531 198.127 130.291 198.465 129.462 197.422Z" fill="#263238"/>
<path d="M80.5698 94.009C80.5698 94.009 106.159 137.541 106.844 140.597C107.897 145.293 113.478 191.674 113.478 191.674L140.104 191.195C140.104 191.195 135.515 150.302 131.169 136.829C128.038 127.125 105.455 94.9409 105.455 94.9409L80.5698 94.009Z" fill="#37474F"/>
<path d="M137.673 187.119C133.849 187.091 120.299 186.938 115.21 187.413C115.171 187.417 115.172 187.481 115.211 187.487C116.963 187.738 133.852 187.347 137.675 187.224C137.747 187.222 137.745 187.119 137.673 187.119Z" fill="#263238"/>
<path d="M84.9377 98.0036C86.6145 100.634 88.3836 103.209 90.098 105.816C91.8133 108.424 93.5222 111.037 95.2089 113.663C98.5799 118.913 101.863 124.217 105.086 129.554C106.598 132.057 108.037 134.584 109.075 137.314C110.103 140.019 110.803 142.833 111.321 145.669C111.843 148.527 112.186 151.412 112.511 154.296C112.856 157.367 113.197 160.439 113.54 163.51C114.241 169.795 114.943 176.08 115.644 182.364C115.73 183.135 115.814 183.905 115.892 184.677C115.903 184.79 115.701 184.813 115.687 184.7C114.903 178.455 114.253 172.192 113.541 165.939C113.186 162.826 112.832 159.713 112.478 156.6C112.148 153.705 111.835 150.808 111.386 147.928C110.945 145.1 110.372 142.283 109.511 139.545C108.612 136.685 107.338 134 105.83 131.399C102.744 126.077 99.4792 120.846 96.2128 115.629C92.9184 110.368 89.5962 105.12 86.1508 99.9503C85.7256 99.3119 85.2964 98.6775 84.8553 98.049C84.8208 97.9997 84.9051 97.9528 84.9377 98.0036Z" fill="#263238"/>
<path d="M88.9591 210.48C87.745 210.405 56.401 197.705 55.5273 196.502C55.4982 196.462 55.481 196.383 55.4795 196.27C55.4854 195.192 57.6561 191.42 59.4701 186.47C59.5835 186.153 60.3926 184.684 61.5154 182.703C64.6017 177.262 70.0629 167.942 70.0629 167.942L90.5506 176.082L80.7441 190.761L79.2177 194.314C79.2177 194.314 88.8333 204.251 89.6453 205.673C90.4524 207.095 90.1687 210.548 88.9591 210.48Z" fill="#EB9481"/>
<path d="M88.96 210.49C87.746 210.415 56.402 197.715 55.5283 196.512C55.4992 196.471 55.4819 196.393 55.4805 196.28C55.4864 195.202 57.6571 191.43 59.471 186.479C59.5845 186.163 60.3936 184.694 61.5164 182.713L80.7456 190.771L79.2192 194.323C79.2192 194.323 88.8347 204.261 89.6468 205.682C90.4534 207.105 90.1697 210.558 88.96 210.49Z" fill="white"/>
<path d="M88.9569 210.478C87.7448 210.407 56.3999 197.706 55.5282 196.501C55.1952 196.046 56.5967 191.765 59.4679 186.471L79.218 194.317C79.218 194.317 88.8336 204.25 89.6476 205.674C90.4547 207.095 90.169 210.548 88.9569 210.478Z" fill="#A6A6A6"/>
<path d="M89.0083 209.079C83.9299 206.898 63.24 198.582 58.0541 196.812C58.0121 196.798 58.0008 196.826 58.0413 196.844C63.0279 199.115 83.7844 207.264 88.9747 209.163C89.0843 209.203 89.1153 209.125 89.0083 209.079Z" fill="#263238"/>
<path d="M88.1196 203.785C86.9233 203.248 85.503 203.349 84.5494 203.808C83.6333 204.249 82.6959 205.01 82.3062 206.087C82.2948 206.119 82.3511 206.142 82.3683 206.112C83.4655 204.222 85.9973 203.191 88.0945 203.849C88.1364 203.863 88.1611 203.803 88.1196 203.785Z" fill="#263238"/>
<path d="M81.0026 195.624C78.9612 194.773 76.2908 194.545 74.3421 195.712C74.2666 195.758 74.3322 195.864 74.4057 195.857C76.645 195.644 78.6943 195.638 80.9365 195.891C81.0948 195.909 81.1486 195.686 81.0026 195.624Z" fill="#263238"/>
<path d="M82.3268 196.879C80.2854 196.028 77.615 195.799 75.6663 196.966C75.5908 197.012 75.6564 197.118 75.7299 197.111C77.9687 196.898 80.0185 196.892 82.2607 197.145C82.419 197.163 82.4728 196.94 82.3268 196.879Z" fill="#263238"/>
<path d="M83.6774 198.13C81.636 197.279 78.9656 197.05 77.0169 198.218C76.9414 198.263 77.007 198.37 77.0805 198.363C79.3193 198.15 81.3691 198.143 83.6113 198.397C83.7691 198.415 83.8234 198.191 83.6774 198.13Z" fill="#263238"/>
<path d="M85.0037 199.383C82.9622 198.532 80.2918 198.304 78.3437 199.471C78.2682 199.517 78.3333 199.623 78.4073 199.616C80.6465 199.403 82.6958 199.397 84.938 199.65C85.0959 199.668 85.1502 199.445 85.0037 199.383Z" fill="#263238"/>
<path d="M61.2983 192.462C58.9925 191.546 57.5648 195.128 59.8746 196.045C62.1809 196.962 63.6086 193.379 61.2983 192.462Z" fill="#263238"/>
<path d="M85.4159 191.035C84.7218 189.757 83.0755 190.074 82.0765 190.713C80.4584 191.746 78.9315 193.492 78.1081 195.215C78.0879 195.257 78.1141 195.288 78.1486 195.299C78.1333 195.464 78.2576 195.657 78.4515 195.613C80.3183 195.187 82.3666 194.964 84.0469 193.979C85.0276 193.403 86.072 192.244 85.4159 191.035ZM81.1491 194.39C80.2359 194.621 79.3173 194.806 78.413 195.072C79.1895 194.196 79.9241 193.29 80.7884 192.493C81.2009 192.113 81.632 191.73 82.0933 191.409C82.8111 190.909 85.5136 190.001 84.8229 192.316C84.4421 193.593 82.2374 194.113 81.1491 194.39Z" fill="#263238"/>
<path d="M72.7021 193.932C74.3794 194.923 76.4272 195.153 78.2925 195.584C78.4859 195.629 78.6107 195.437 78.5964 195.271C78.631 195.26 78.6576 195.229 78.6374 195.187C77.8189 193.461 76.2975 191.711 74.6828 190.672C73.6853 190.032 72.04 189.709 71.3425 190.985C70.6819 192.192 71.7228 193.354 72.7021 193.932ZM71.931 192.267C71.2477 189.95 73.9473 190.867 74.6631 191.369C75.1234 191.691 75.5531 192.075 75.9645 192.457C76.8264 193.257 77.5585 194.164 78.3325 195.042C77.4292 194.775 76.5111 194.586 75.5984 194.352C74.5111 194.073 72.3074 193.545 71.931 192.267Z" fill="#263238"/>
<path d="M82.3252 189.94L59.3926 180.68C59.3926 180.68 87.8263 138.872 88.037 135.761C88.223 133.004 75.7342 109.017 75.2419 102.027C74.7106 94.4829 78.3435 88.6438 82.335 85.0203L105.993 95.0769C105.993 95.0769 103.496 99.0714 99.5627 101.295C99.5627 101.295 111.695 129.021 111.007 137.545C110.315 146.117 82.3252 189.94 82.3252 189.94Z" fill="#37474F"/>
<path d="M83.3439 185.579C80.0277 184.153 80.9996 184.515 77.6671 183.126C76.0367 182.447 65.317 177.991 63.6851 177.624C63.6491 177.616 63.6259 177.673 63.6575 177.692C65.0842 178.566 75.8793 182.834 77.5226 183.482C80.8807 184.807 79.931 184.39 83.304 185.676C83.3676 185.7 83.4061 185.605 83.3439 185.579Z" fill="#263238"/>
<path d="M103.458 100.788C100.993 101.318 98.575 102.188 96.2524 103.124C96.1612 103.161 96.2041 103.296 96.3018 103.268C98.7201 102.562 101.18 101.902 103.554 101.068C103.74 101.002 103.647 100.747 103.458 100.788Z" fill="#263238"/>
<path d="M100.651 99.814C100.418 100.22 100.22 100.649 100.043 101.081C99.9066 101.417 99.731 101.777 99.7329 102.144C99.7334 102.215 99.8291 102.232 99.873 102.189C100.148 101.919 100.294 101.524 100.467 101.187C100.669 100.797 100.879 100.41 101.069 100.014C101.195 99.7513 100.795 99.5633 100.651 99.814Z" fill="#263238"/>
<path d="M100.927 97.5891C101.072 97.2251 101.218 96.8615 101.371 96.5009C101.529 96.1274 101.713 95.7594 101.842 95.3751C101.863 95.3144 101.959 95.3553 101.935 95.4165C101.79 95.7811 101.696 96.1698 101.58 96.5448C101.464 96.9212 101.341 97.2951 101.216 97.6691C100.984 98.3652 100.701 99.0558 100.402 99.7278C100.789 99.7228 101.187 99.7055 101.538 99.5304C101.92 99.34 102.152 98.9345 102.34 98.5679C102.548 98.1609 102.74 97.7446 102.955 97.3405C103.192 96.8936 103.455 96.4515 103.611 95.9676C103.631 95.9064 103.725 95.9473 103.703 96.0085C103.347 97.0075 102.997 98.005 102.443 98.9256C102.225 99.2872 102.049 99.6636 101.648 99.8052C101.217 99.9572 100.746 99.9275 100.297 99.895C100.242 99.9103 100.17 99.8748 100.19 99.8077C100.401 99.0632 100.64 98.3084 100.927 97.5891Z" fill="#263238"/>
<path d="M99.9322 102.198C100.773 103.98 101.512 105.756 102.298 107.532C103.066 109.268 103.786 111.023 104.484 112.788C105.895 116.353 107.159 119.983 108.267 123.654C108.816 125.47 109.321 127.299 109.778 129.141C110.235 130.988 110.683 132.853 110.873 134.749C111.063 136.652 110.928 138.533 110.398 140.372C109.86 142.239 109.152 143.869 108.31 145.614C107.796 146.681 107.619 146.537 107.868 145.999C108.574 144.471 110.423 139.839 110.289 135.946C110.224 134.067 109.838 132.217 109.414 130.392C108.981 128.528 108.492 126.678 107.959 124.841C106.908 121.222 105.66 117.673 104.376 114.131C103.656 112.147 102.884 110.182 102.154 108.202C101.419 106.207 100.66 104.412 99.8444 102.233C99.8227 102.176 99.9061 102.142 99.9322 102.198Z" fill="#263238"/>
<path d="M82.5196 96.3098C82.9305 96.1579 83.5003 96.4095 83.9191 96.4795C84.4564 96.5698 84.9995 96.6246 85.5442 96.6433C86.0809 96.6616 86.6221 96.6399 87.1564 96.5876C87.6907 96.5358 88.2358 96.4697 88.7 96.1796C89.4825 95.6912 90.1376 94.8308 90.6679 94.0898C91.2506 93.2754 91.8554 92.339 92.2027 91.3958C92.2239 91.338 92.3073 91.3775 92.289 91.4342C92.1164 91.9843 91.9881 92.5388 91.7686 93.076C91.5619 93.5817 91.295 94.0652 91.0118 94.5309C90.4829 95.4011 89.8761 96.3301 88.9694 96.8476C88.0177 97.3907 86.7918 97.3582 85.7307 97.297C85.117 97.2615 84.5057 97.1806 83.9038 97.0538C83.4697 96.962 82.7391 96.8925 82.4623 96.5111C82.4125 96.444 82.4386 96.3399 82.5196 96.3098Z" fill="#263238"/>
<path d="M65.9386 176.309C69.7082 170.604 73.4077 164.853 77.0406 159.06C80.6829 153.252 84.2581 147.402 87.7834 141.522C88.6265 140.116 89.6009 138.711 90.144 137.153C90.7346 135.46 90.3991 133.82 89.8643 132.163C88.8836 129.125 87.6621 126.168 86.3434 123.262C85.0208 120.348 83.597 117.481 82.1959 114.604C80.8067 111.75 79.3282 108.886 78.2744 105.887C77.268 103.023 76.8847 100.052 77.6573 97.0805C78.4239 94.1323 80.082 91.4851 81.8136 89.0145C82.2704 88.3628 82.7356 87.717 83.1939 87.0663C83.229 87.017 83.304 87.0767 83.2675 87.126C81.3592 89.7017 79.4984 92.4279 78.3795 95.452C77.8265 96.9463 77.4683 98.5195 77.4333 100.116C77.3973 101.736 77.7017 103.342 78.1787 104.885C79.1067 107.884 80.5714 110.725 81.936 113.543C83.3311 116.423 84.7637 119.286 86.1091 122.191C87.4628 125.114 88.7287 128.081 89.7691 131.13C90.2323 132.488 90.7489 133.909 90.7183 135.364C90.6847 136.957 89.924 138.392 89.1366 139.735C85.707 145.584 82.1466 151.359 78.5423 157.102C74.9242 162.866 71.2346 168.586 67.4877 174.267C67.0151 174.983 66.5415 175.699 66.0674 176.414C66.0087 176.502 65.8804 176.397 65.9386 176.309Z" fill="#263238"/>
<path d="M107.307 68.4873C109.442 73.1744 120.228 79.6332 125.281 80.3273C128.916 80.8265 139.952 80.9982 143.737 80.4205C148.169 79.7437 144.783 67.7764 142.162 68.0828C134.96 68.9249 128.844 69.8622 126.921 69.8622C124.574 69.8622 111.869 65.7843 110.338 65.2106C106.591 63.806 106.095 65.8287 107.307 68.4873Z" fill="#EB9481"/>
<path d="M107.373 69.728C110.076 73.7284 119.063 80.268 119.063 80.268L120.31 77.5049L124.437 68.3708C124.437 68.3708 116.184 65.7665 110.753 64.6062C110.02 64.4488 109.373 64.3546 108.81 64.3294C105.343 64.1425 105.042 66.2865 107.373 69.728Z" fill="#C12127"/>
<path d="M107.373 69.728C110.076 73.7284 119.063 80.268 119.063 80.268L120.31 77.5049C116.959 73.615 111.786 67.7191 108.81 64.3294C105.343 64.1425 105.042 66.2865 107.373 69.728Z" fill="#263238"/>
<path d="M117.443 78.4214C118.128 76.7426 121.179 69.9691 121.936 68.5478C121.989 68.4492 122.063 68.4571 122.021 68.5661C120.09 73.643 118.265 76.8304 117.509 78.4441C117.491 78.4845 117.426 78.4638 117.443 78.4214Z" fill="#263238"/>
<path d="M140.84 68.2134C145.224 67.6382 150.646 66.655 155.238 68.6041C156.139 68.9865 156.465 69.6579 156.465 69.6579C158.538 70.4951 158.766 71.7255 158.766 71.7255C160.458 73.0964 160.518 74.387 160.518 74.387C160.518 74.387 162.942 75.3964 162.575 76.9627C162.169 78.7204 158.844 76.9587 156.424 77.1082C150.878 77.4501 143.09 79.4876 141.501 79.7451L140.84 68.2134Z" fill="#EB9481"/>
<path d="M150.36 73.3824C151.994 73.3143 153.597 73.2048 155.232 73.3582C157.026 73.5264 158.723 73.9897 160.464 74.4179C160.518 74.4312 160.542 74.3572 160.491 74.3355C157.463 73.0617 153.582 72.7272 150.356 73.3084C150.277 73.3222 150.277 73.3858 150.36 73.3824Z" fill="#263238"/>
<path d="M149.666 70.0651C151.26 70.0868 154.061 70.1435 158.748 71.7765C158.763 71.7819 158.777 71.7577 158.761 71.7493C155.859 70.2846 152.883 69.7637 149.668 69.9891C149.568 69.996 149.561 70.0636 149.666 70.0651Z" fill="#263238"/>
<path d="M149.328 68.2752C152.036 68.4158 153.726 68.847 156.451 69.6659C156.466 69.6704 156.478 69.6452 156.462 69.6383C153.463 68.3828 152.233 68.2668 149.319 68.182C149.22 68.1785 149.222 68.2698 149.328 68.2752Z" fill="#263238"/>
<path d="M149.767 77.9436C149.062 78.2741 149.231 78.6461 150.579 78.9584C151.942 79.2771 157.526 79.3624 157.33 81.3131C157.135 83.2711 149.234 83.0205 147.029 82.3288C144.823 81.6421 141.5 79.7457 141.5 79.7457C143.048 79.4843 146.739 78.4942 149.767 77.9436Z" fill="#EB9481"/>
<path d="M113.172 75.9589C113.138 76.8016 113.055 77.6595 112.937 78.51C112.948 78.4794 112.961 78.4493 112.973 78.4187C113.137 77.9747 113.297 77.5194 113.496 77.0902C113.506 77.0675 113.546 77.0739 113.541 77.1015C113.455 77.5672 113.291 78.0349 113.114 78.4745C113.029 78.6841 112.943 78.8938 112.852 79.1015C112.791 79.4804 112.723 79.8568 112.646 80.2273C112.501 80.9327 111.834 83.9337 111.683 84.4408C111.65 84.5474 111.524 84.5232 111.532 84.4038C111.568 83.8513 112.127 80.726 112.24 80.0186C112.457 78.6599 112.756 77.2737 113.119 75.9461C113.128 75.9145 113.173 75.9293 113.172 75.9589Z" fill="#263238"/>
<path d="M108.029 98.3859C106.713 99.0642 105.016 100.115 97.3702 98.6099C96.8921 98.5127 96.4116 98.3952 95.9301 98.2522C88.7595 96.0983 80.1598 87.6662 79.6748 87.0718C79.6748 87.0718 91.0624 68.6058 105.632 62.8012C107.432 62.0839 110.413 63.4672 112.064 65.189C112.653 65.8042 113.932 70.3349 113.441 74.0068C112.945 77.6733 109.354 97.714 108.029 98.3859Z" fill="#C12127"/>
<path d="M107.011 73.8384C107.053 74.235 107.022 74.6213 106.973 75.0051C106.916 75.3879 106.84 75.7683 106.691 76.1383C106.649 75.7417 106.68 75.3554 106.729 74.9716C106.787 74.5887 106.863 74.2084 107.011 73.8384Z" fill="white"/>
<path d="M102.046 86.4136C102.088 86.8102 102.056 87.1965 102.008 87.5808C101.95 87.9636 101.874 88.344 101.725 88.714C101.683 88.3173 101.715 87.9311 101.763 87.5468C101.822 87.1639 101.897 86.7836 102.046 86.4136Z" fill="white"/>
<path d="M93.6027 76.9102C93.6447 77.3068 93.6131 77.6931 93.5647 78.0769C93.507 78.4597 93.4315 78.8401 93.2826 79.2101C93.2401 78.8134 93.2717 78.4272 93.3205 78.0429C93.3793 77.6605 93.4547 77.2802 93.6027 76.9102Z" fill="white"/>
<path d="M110.264 85.7756C110.306 86.1723 110.275 86.5585 110.226 86.9424C110.169 87.3252 110.093 87.7055 109.944 88.0755C109.902 87.6789 109.933 87.2926 109.982 86.9083C110.04 86.526 110.116 86.1456 110.264 85.7756Z" fill="white"/>
<path d="M99.4331 75.2732C99.8297 75.2313 100.216 75.2628 100.6 75.3112C100.983 75.3689 101.364 75.4444 101.734 75.5934C101.337 75.6358 100.951 75.6042 100.566 75.5554C100.183 75.4972 99.8036 75.4217 99.4331 75.2732Z" fill="white"/>
<path d="M89.8438 84.3645C90.2404 84.3226 90.6267 84.3541 91.0105 84.4025C91.3933 84.4602 91.7737 84.5357 92.1437 84.6847C91.747 84.7271 91.3607 84.6955 90.9769 84.6467C90.5936 84.5885 90.2138 84.513 89.8438 84.3645Z" fill="white"/>
<path d="M101.125 94.1978C101.521 94.1558 101.907 94.1874 102.291 94.2357C102.674 94.2935 103.054 94.369 103.424 94.5179C103.028 94.5604 102.642 94.5288 102.258 94.48C101.875 94.4217 101.495 94.3463 101.125 94.1978Z" fill="white"/>
<path d="M86.8901 90.6253C87.2868 90.5833 87.6731 90.6149 88.0574 90.6632C88.4402 90.721 88.8206 90.7964 89.1906 90.9454C88.7939 90.9879 88.4076 90.9563 88.0233 90.9074C87.6405 90.8487 87.2601 90.7733 86.8901 90.6253Z" fill="white"/>
<path d="M106.939 65.0005C107.336 64.9586 107.722 64.9901 108.106 65.0385C108.489 65.0962 108.869 65.1717 109.239 65.3207C108.842 65.3631 108.456 65.3315 108.072 65.2827C107.689 65.224 107.309 65.1485 106.939 65.0005Z" fill="white"/>
<path d="M104.155 68.1475C103.904 68.4573 103.609 68.7084 103.303 68.9457C102.992 69.1756 102.67 69.3911 102.303 69.547C102.553 69.2367 102.849 68.9856 103.155 68.7488C103.466 68.5194 103.789 68.3038 104.155 68.1475Z" fill="white"/>
<path d="M88.9653 77.0981C88.7141 77.408 88.4191 77.6591 88.1133 77.8964C87.802 78.1262 87.4798 78.3418 87.1128 78.4982C87.3634 78.1879 87.6589 77.9368 87.9648 77.7C88.2766 77.4701 88.5987 77.255 88.9653 77.0981Z" fill="white"/>
<path d="M107.939 81.1294C107.688 81.4392 107.393 81.6903 107.087 81.9276C106.776 82.1575 106.453 82.3731 106.086 82.529C106.337 82.2187 106.633 81.9676 106.938 81.7308C107.25 81.5019 107.572 81.2863 107.939 81.1294Z" fill="white"/>
<path d="M95.6459 88.863C95.3948 89.1729 95.0998 89.424 94.7939 89.6612C94.4826 89.8911 94.1605 90.1067 93.7935 90.2626C94.0441 89.9523 94.3396 89.7012 94.6454 89.4644C94.9567 89.2355 95.2789 89.0199 95.6459 88.863Z" fill="white"/>
<path d="M112.636 70.5588C112.385 70.8687 112.09 71.1198 111.784 71.357C111.472 71.5869 111.15 71.8025 110.783 71.9584C111.033 71.6481 111.329 71.397 111.635 71.1602C111.947 70.9308 112.269 70.7152 112.636 70.5588Z" fill="white"/>
<path d="M112.379 79.5243C112.069 79.2732 111.818 78.9782 111.58 78.6724C111.35 78.3611 111.135 78.0389 110.979 77.6719C111.289 77.9225 111.54 78.218 111.777 78.5239C112.006 78.8356 112.222 79.1578 112.379 79.5243Z" fill="white"/>
<path d="M85.0016 85.6984C84.6918 85.4473 84.4407 85.1523 84.2034 84.8464C83.9735 84.5351 83.7579 84.213 83.6021 83.8459C83.9124 84.0966 84.1635 84.3921 84.4003 84.6979C84.6297 85.0092 84.8452 85.3314 85.0016 85.6984Z" fill="white"/>
<path d="M109.06 93.0483C108.75 92.7972 108.499 92.5021 108.262 92.1963C108.032 91.885 107.817 91.5628 107.66 91.1958C107.97 91.4464 108.222 91.7419 108.458 92.0478C108.688 92.3591 108.903 92.6817 109.06 93.0483Z" fill="white"/>
<path d="M97.0095 72.1025C96.6996 71.8514 96.4485 71.5563 96.2112 71.2505C95.9813 70.9392 95.7658 70.617 95.6099 70.25C95.9202 70.5006 96.1713 70.7961 96.4081 71.102C96.6375 71.4133 96.8531 71.7354 97.0095 72.1025Z" fill="white"/>
<path d="M97.2223 97.2321C96.9125 96.981 96.6614 96.686 96.4241 96.3801C96.1942 96.0688 95.9786 95.7467 95.8228 95.3796C96.1331 95.6303 96.3842 95.9258 96.621 96.2316C96.8499 96.5429 97.0655 96.8651 97.2223 97.2321Z" fill="white"/>
<path d="M99.2604 82.4086C98.9506 82.1575 98.6995 81.8625 98.4622 81.5566C98.2323 81.2453 98.0167 80.9232 97.8608 80.5562C98.1711 80.8068 98.4223 81.1023 98.6591 81.4081C98.8885 81.7194 99.104 82.0416 99.2604 82.4086Z" fill="white"/>
<path d="M109.386 70.1048C107.529 69.7595 105.779 65.9169 105.559 63.3318C105.545 63.1547 106.429 61.7473 107.421 59.9861C108.019 58.915 108.659 57.7083 109.165 56.5653C109.267 56.33 109.875 57.1144 109.875 57.1144L111.197 58.1252L115.566 61.4749C115.566 61.4749 113.802 63.5603 112.934 65.5587C112.863 65.7265 112.811 65.8888 112.776 66.0496C112.769 66.0723 112.763 66.1009 112.752 66.132C112.503 67.0876 111.18 70.4373 109.386 70.1048Z" fill="#EB9481"/>
<path d="M112.772 66.0591C112.765 66.0818 112.76 66.1104 112.748 66.1415C112.51 66.0744 112.26 65.9792 111.994 65.8549C107.213 63.6142 109.322 57.2087 109.322 57.2087L111.194 58.1347L115.562 61.4845C115.562 61.4845 113.799 63.5698 112.93 65.5683C112.859 65.736 112.808 65.8983 112.772 66.0591Z" fill="#263238"/>
<path d="M120.585 47.8308C120.585 47.8308 122.769 49.2181 122.783 51.6837C122.798 54.1499 121.815 56.5623 121.587 56.6487C121.359 56.735 120.585 47.8308 120.585 47.8308Z" fill="#263238"/>
<path d="M109.738 49.1019C108.425 51.6944 108.491 59.8571 110.131 61.9606C112.509 65.0099 117.089 66.0607 119.853 63.046C122.533 60.1235 122.258 49.4872 120.362 47.505C117.57 44.5854 111.678 45.2726 109.738 49.1019Z" fill="#EB9481"/>
<path d="M116.692 55.6432C116.687 55.622 116.649 55.6703 116.65 55.6935C116.681 56.2495 116.622 56.8913 116.123 57.0877C116.108 57.0936 116.11 57.1217 116.128 57.1188C116.74 57.0176 116.81 56.1646 116.692 55.6432Z" fill="#263238"/>
<path d="M116.181 55.0734C115.284 55.0261 115.256 56.8223 116.087 56.8662C116.904 56.9091 116.932 55.1129 116.181 55.0734Z" fill="#263238"/>
<path d="M119.736 55.6224C119.741 55.6012 119.779 55.6496 119.778 55.6723C119.751 56.2283 119.815 56.8696 120.315 57.0625C120.331 57.0684 120.329 57.0965 120.31 57.0936C119.698 56.9969 119.622 56.1449 119.736 55.6224Z" fill="#263238"/>
<path d="M120.25 55.05C121.146 54.9962 121.187 56.792 120.358 56.8418C119.541 56.8911 119.499 55.0949 120.25 55.05Z" fill="#263238"/>
<path d="M115.631 53.7058C115.877 53.6481 116.094 53.5538 116.33 53.472C116.598 53.3792 116.82 53.3328 116.998 53.0975C117.094 52.9712 117.059 52.7413 116.945 52.6367C116.679 52.394 116.324 52.4261 115.997 52.5248C115.643 52.6318 115.397 52.8045 115.19 53.1103C114.989 53.4068 115.307 53.7818 115.631 53.7058Z" fill="#263238"/>
<path d="M120.877 54.502C120.629 54.4576 120.407 54.3752 120.166 54.3056C119.894 54.2272 119.669 54.1927 119.479 53.9667C119.377 53.8453 119.4 53.614 119.508 53.504C119.76 53.2474 120.117 53.2607 120.448 53.3417C120.808 53.4295 121.063 53.5893 121.285 53.8838C121.501 54.169 121.204 54.5607 120.877 54.502Z" fill="#263238"/>
<path d="M115.449 60.9137C115.581 61.0459 115.711 61.2274 115.912 61.2477C116.105 61.2669 116.334 61.183 116.512 61.1169C116.53 61.1105 116.547 61.1293 116.536 61.146C116.388 61.3572 116.082 61.486 115.825 61.4371C115.574 61.3893 115.453 61.1697 115.395 60.9384C115.388 60.9058 115.43 60.8944 115.449 60.9137Z" fill="#263238"/>
<path d="M118.66 58.5374C118.66 58.5374 118.684 59.3701 118.642 59.7569C118.638 59.7929 117.547 59.5793 116.371 59.8383C116.194 59.8773 116.212 59.7337 116.415 59.64C116.822 59.452 117.339 59.2759 118.345 59.3839C118.384 59.2799 118.285 58.1028 118.347 58.1047C118.56 58.1097 118.962 58.2991 119.204 58.3997C119.205 56.6637 118.927 54.942 118.955 53.2133C118.957 53.1517 119.046 53.1428 119.058 53.1995C119.477 54.9839 119.519 56.9814 119.564 58.7742C119.573 58.9977 118.808 58.6203 118.66 58.5374Z" fill="#263238"/>
<path d="M117.559 59.4588C117.559 59.4588 117.171 60.4346 116.523 60.6966C115.777 60.9985 115.521 60.3231 116.282 59.7267C116.681 59.4139 117.559 59.4588 117.559 59.4588Z" fill="#263238"/>
<path d="M116.782 60.5447C116.698 60.6088 116.614 60.6631 116.52 60.6976C115.834 60.9739 115.563 60.4263 116.116 59.8738C116.491 59.9034 116.9 60.0415 116.782 60.5447Z" fill="#FF99BA"/>
<path d="M109.361 56.0858C110.263 56.3626 111.301 53.6497 111.594 52.6068C111.853 51.6878 112.151 48.7717 112.195 48.5729C112.239 48.374 116.128 51.153 118.402 50.4885C120.676 49.8239 122.195 47.7835 122.227 46.8309C122.258 45.8788 119.435 43.4609 116.992 43.3371C114.549 43.2133 111.242 46.3183 111.242 46.3183C111.242 46.3183 112.365 44.9769 112.327 44.8669C112.289 44.7569 110.711 45.3874 110.421 46.5117C110.421 46.5117 110.733 45.1003 110.614 45.0741C110.494 45.048 109.268 46.2567 109.544 47.1728C109.544 47.1728 108.126 48.4017 107.994 49.749C107.863 51.0967 108.301 55.7607 109.361 56.0858Z" fill="#263238"/>
<path d="M120.018 50.0141C119.327 50.3323 118.634 50.6821 117.87 50.7827C117.044 50.8918 116.187 50.6846 115.418 50.3895C114.632 50.0886 113.918 49.6515 113.268 49.1172C112.7 48.6491 112.195 48.0842 111.588 47.6673C111.436 47.5632 111.26 47.7818 111.354 47.9219C112.276 49.3052 113.907 50.4601 115.48 50.9589C117.134 51.4833 118.689 51.1142 120.027 50.0324C120.035 50.0255 120.029 50.0087 120.018 50.0141Z" fill="#263238"/>
<path d="M110.305 55.8442C110.305 55.8442 108.905 53.0016 107.642 53.4624C106.379 53.9232 107.157 57.8511 108.445 58.5704C109.734 59.2896 110.423 58.1096 110.423 58.1096L110.305 55.8442Z" fill="#EB9481"/>
<path d="M107.893 54.5834C107.871 54.578 107.862 54.6081 107.88 54.6189C108.779 55.1547 109.147 56.1211 109.359 57.0974C109.128 56.6988 108.77 56.4448 108.242 56.7112C108.215 56.725 108.232 56.7679 108.26 56.7664C108.666 56.7427 108.939 56.8542 109.156 57.2094C109.309 57.461 109.395 57.7625 109.489 58.0402C109.521 58.1329 109.683 58.1107 109.665 58.0071C109.664 57.9992 109.662 57.9914 109.661 57.9835C109.873 56.7644 109.186 54.908 107.893 54.5834Z" fill="#263238"/>
<path d="M101.062 68.5334C100.098 74.1218 106.132 92.9534 110.017 96.4708C115.794 101.702 126.476 105.141 130.347 106.26C132.034 106.748 136.701 94.8769 134.995 94.0949C131.339 92.4206 119.983 88.8784 118.914 87.9687C117.845 87.059 111.319 77.6699 108.417 72.2551C104.526 64.9897 101.55 65.7066 101.062 68.5334Z" fill="#EB9481"/>
<path d="M132.121 93.0505C132.121 93.0505 137.158 94.3342 140.413 95.3287C142.229 95.8833 145.257 97.1121 146.404 98.1299C148.121 99.6523 154.327 107.115 152.55 108.659C150.942 110.057 146.424 102.968 146.424 102.968C146.424 102.968 151.615 109.718 149.369 111.044C147.123 112.371 143.083 103.683 143.083 103.683C143.083 103.683 148.261 110.738 145.729 111.739C143.814 112.496 139.712 104.834 139.712 104.834C139.712 104.834 144.121 110.928 142.186 111.792C140.048 112.746 135.818 105.91 135.818 105.91C130.53 107.276 127.454 105.764 125.393 104.428C124.895 104.103 132.121 93.0505 132.121 93.0505Z" fill="#EB9481"/>
<path d="M144.77 100.518C145.408 101.289 146.06 102.065 146.628 102.89C147.196 103.714 147.735 104.56 148.224 105.434C149.421 107.578 149.837 109.108 149.801 109.016C148.951 106.848 146.964 103.863 146.396 103.038C145.83 102.214 145.305 101.363 144.738 100.538C144.723 100.518 144.755 100.5 144.77 100.518Z" fill="#263238"/>
<path d="M141.753 102.514C142.848 103.382 145.143 106.611 146.029 108.775C146.066 108.866 146.017 108.858 145.963 108.776C145.269 107.707 142.469 103.562 141.728 102.531C141.716 102.515 141.739 102.502 141.753 102.514Z" fill="#263238"/>
<path d="M138.857 103.763C140.124 105.017 141.188 106.729 142.024 108.707C142.062 108.797 141.991 108.783 141.938 108.698C140.917 107.035 140.127 105.723 138.805 103.807C138.784 103.776 138.827 103.734 138.857 103.763Z" fill="#263238"/>
<path d="M106.545 68.942C102.04 62.5711 99.3483 64.9326 100.252 71.8477C101.096 78.3148 103.363 86.0192 103.363 86.0192L114.73 80.5136C114.73 80.5136 109.427 73.0194 106.545 68.942Z" fill="#C12127"/>
<path d="M109.308 71.4504C109.469 71.8155 109.558 72.1929 109.628 72.5733C109.69 72.9556 109.734 73.3404 109.705 73.7385C109.544 73.3735 109.456 72.9961 109.385 72.6157C109.324 72.2329 109.28 71.8481 109.308 71.4504Z" fill="white"/>
<path d="M102.583 75.3237C102.948 75.1629 103.325 75.0751 103.705 75.0041C104.088 74.9424 104.472 74.898 104.871 74.9271C104.506 75.0884 104.128 75.1767 103.748 75.2468C103.365 75.308 102.98 75.3519 102.583 75.3237Z" fill="white"/>
<path d="M102.876 65.417C102.731 65.789 102.527 66.118 102.308 66.4372C102.082 66.751 101.84 67.0549 101.539 67.3153C101.683 66.9434 101.887 66.6138 102.106 66.2951C102.333 65.9814 102.575 65.678 102.876 65.417Z" fill="white"/>
<path d="M112.467 78.2991C112.322 78.6706 112.118 79.0001 111.899 79.3193C111.673 79.633 111.432 79.9369 111.13 80.1974C111.274 79.8254 111.478 79.4959 111.698 79.1772C111.925 78.8639 112.166 78.56 112.467 78.2991Z" fill="white"/>
<path d="M104.602 82.1634C104.23 82.0188 103.901 81.8146 103.582 81.5955C103.268 81.3691 102.965 81.1278 102.704 80.8264C103.076 80.9705 103.405 81.1747 103.724 81.3942C104.038 81.6207 104.341 81.8619 104.602 82.1634Z" fill="white"/>
<path d="M108.056 70.8596C108.66 71.6918 109.288 72.5078 109.912 73.3253C109.754 72.9119 109.617 72.494 109.494 72.0673C109.489 72.0475 109.517 72.0392 109.524 72.0579C109.651 72.385 109.791 72.7076 109.912 73.0367C109.97 73.195 110.029 73.3524 110.09 73.5098C110.103 73.5438 110.116 73.5774 110.13 73.6109C110.616 74.2488 111.1 74.8882 111.567 75.5389C112.125 76.3159 112.664 77.1062 113.205 77.895C113.764 78.71 114.294 79.6656 114.885 80.4579C114.936 80.5265 113.879 80.9537 113.78 81.0085C113.679 81.0647 113.611 80.9665 113.718 80.934C113.817 80.9039 114.654 80.3893 114.665 80.379C114.124 79.5837 113.496 78.8481 112.929 78.0706C112.366 77.2966 111.8 76.5245 111.253 75.7387C110.143 74.1422 109.124 72.4837 108.023 70.8803C108.008 70.8601 108.041 70.8394 108.056 70.8596Z" fill="#263238"/>
<path d="M100.531 76.4228C100.704 76.7593 100.89 77.0923 101.043 77.4381C101.106 77.5812 101.168 77.7242 101.231 77.8673C100.972 76.636 100.718 75.4036 100.466 74.1703C100.463 74.156 100.485 74.1486 100.489 74.1634C101.01 76.1599 101.536 78.1544 102.02 80.1603C102.481 82.0725 103.038 84.0083 103.302 85.9595C103.459 85.9077 104.344 85.5416 104.369 85.5988C104.395 85.6566 103.213 86.213 103.197 86.1667C102.554 84.2599 102.155 82.0942 101.718 80.1317C101.594 79.5792 101.479 79.0252 101.361 78.4712C101.233 78.1377 101.078 77.8165 100.926 77.4924C100.766 77.1495 100.637 76.7904 100.496 76.4391C100.488 76.4189 100.521 76.4031 100.531 76.4228Z" fill="#263238"/>
<path d="M103.543 84.1183C105.122 83.2278 111.72 79.8125 113.196 79.1687C113.298 79.1238 113.352 79.1765 113.251 79.2362C108.585 82.0167 105.175 83.3812 103.58 84.178C103.541 84.1977 103.503 84.141 103.543 84.1183Z" fill="#263238"/>
<path d="M284.317 213.814H134.008L155.743 90.5544H306.05L284.317 213.814Z" fill="#C12127"/>
<path d="M207.175 77.7881H157.983L155.732 90.5531H208.377L207.175 77.7881Z" fill="#C12127"/>
<g opacity="0.1">
<path d="M284.317 213.814H134.008L155.743 90.5544H306.05L284.317 213.814Z" fill="black"/>
<path d="M207.175 77.7881H157.983L155.732 90.5531H208.377L207.175 77.7881Z" fill="black"/>
</g>
<path d="M152.676 83.003C152.481 82.2876 152.438 81.5718 152.429 80.8565C152.436 80.1406 152.48 79.4253 152.676 78.71C152.871 79.4253 152.915 80.1411 152.923 80.8565C152.914 81.5723 152.87 82.2876 152.676 83.003Z" fill="#263238"/>
<path d="M148.313 84.261C147.787 83.7385 147.391 83.1406 147.026 82.5254C146.675 81.9023 146.355 81.2605 146.167 80.5432C146.694 81.0652 147.09 81.6631 147.453 82.2788C147.804 82.9023 148.124 83.5442 148.313 84.261Z" fill="#263238"/>
<path d="M145.16 87.5413C144.443 87.3518 143.802 87.0321 143.178 86.6814C142.562 86.3173 141.964 85.9217 141.442 85.3948C142.16 85.5832 142.802 85.9029 143.425 86.2547C144.04 86.6197 144.638 87.0149 145.16 87.5413Z" fill="#263238"/>
<path d="M144.07 91.9591C143.355 92.1534 142.639 92.1973 141.923 92.2057C141.208 92.1983 140.492 92.1549 139.777 91.9591C140.492 91.7637 141.208 91.7198 141.923 91.7124C142.639 91.7208 143.354 91.7647 144.07 91.9591Z" fill="#263238"/>
<path d="M145.325 96.3408C144.803 96.8672 144.205 97.2629 143.59 97.6274C142.967 97.9792 142.325 98.2989 141.607 98.4873C142.129 97.9604 142.727 97.5648 143.343 97.2007C143.967 96.8499 144.608 96.5298 145.325 96.3408Z" fill="#263238"/>
<path d="M148.612 99.4941C148.422 100.211 148.103 100.853 147.752 101.476C147.388 102.093 146.992 102.69 146.465 103.212C146.654 102.495 146.973 101.853 147.325 101.23C147.69 100.614 148.085 100.017 148.612 99.4941Z" fill="#263238"/>
<path d="M153.039 100.577C153.234 101.292 153.277 102.008 153.286 102.723C153.278 103.438 153.235 104.154 153.039 104.87C152.843 104.154 152.8 103.438 152.792 102.723C152.801 102.008 152.845 101.292 153.039 100.577Z" fill="#263238"/>
<path d="M157.408 99.3201C157.934 99.8425 158.329 100.44 158.694 101.056C159.046 101.679 159.366 102.321 159.554 103.038C159.027 102.516 158.632 101.918 158.268 101.302C157.917 100.678 157.597 100.037 157.408 99.3201Z" fill="#263238"/>
<path d="M160.556 96.0298C161.273 96.2192 161.915 96.5389 162.538 96.8897C163.155 97.2538 163.752 97.6494 164.274 98.1763C163.557 97.9878 162.915 97.6681 162.292 97.3164C161.677 96.9518 161.079 96.5562 160.556 96.0298Z" fill="#263238"/>
<path d="M161.645 91.6175C162.36 91.4231 163.076 91.3792 163.792 91.3708C164.507 91.3782 165.223 91.4217 165.938 91.6175C165.222 91.8129 164.507 91.8568 163.792 91.8642C163.076 91.8558 162.36 91.8124 161.645 91.6175Z" fill="#263238"/>
<path d="M160.38 87.2429C160.903 86.7165 161.501 86.3209 162.116 85.9563C162.739 85.6051 163.381 85.2849 164.098 85.0964C163.576 85.6233 162.978 86.019 162.363 86.383C161.739 86.7338 161.097 87.0535 160.38 87.2429Z" fill="#263238"/>
<path d="M157.094 84.0937C157.283 83.3769 157.603 82.7351 157.954 82.1115C158.318 81.4954 158.713 80.8974 159.24 80.376C159.052 81.0933 158.732 81.7351 158.38 82.3582C158.015 82.9734 157.62 83.5713 157.094 84.0937Z" fill="#263238"/>
<path d="M284.096 213.814H133.464L112.078 95.0291H262.71L284.096 213.814Z" fill="#C12127"/>
<path d="M164.275 167.644C167.732 167.644 170.535 164.841 170.535 161.383C170.535 157.925 167.732 155.122 164.275 155.122C160.817 155.122 158.014 157.925 158.014 161.383C158.014 164.841 160.817 167.644 164.275 167.644Z" fill="#263238"/>
<path d="M213.768 167.644C217.226 167.644 220.029 164.841 220.029 161.383C220.029 157.925 217.226 155.122 213.768 155.122C210.31 155.122 207.507 157.925 207.507 161.383C207.507 164.841 210.31 167.644 213.768 167.644Z" fill="#263238"/>
<path d="M198.014 168.643L197.671 167.987C197.639 167.928 194.405 161.95 187.897 161.95C181.962 161.95 180.515 167.579 180.456 167.818L180.281 168.535L178.845 168.189L179.018 167.471C179.035 167.401 180.782 160.47 187.897 160.47C195.316 160.47 198.836 167.021 198.982 167.301L199.325 167.956L198.014 168.643Z" fill="#263238"/>
<path d="M274.1 160.664C274.421 160.595 274.741 160.519 275.06 160.438" stroke="#263238" stroke-width="0.493333" stroke-miterlimit="10"/>
<path d="M276.954 159.877C284.5 157.329 290.819 151.393 291.414 144.458C292.725 129.164 274.099 120.716 276.023 103.044C277.859 86.1866 295.541 84.9838 302.629 87.3138C310.458 89.8876 307.775 97.4124 300.687 96.4415C288.398 94.7582 280.674 81.3983 286.51 66.2431C290.871 54.9206 301.741 50.6503 306.157 49.3479" stroke="#263238" stroke-width="0.493333" stroke-miterlimit="10" stroke-dasharray="1.98 1.98"/>
<path d="M307.108 49.0843C307.72 48.9269 308.067 48.8613 308.067 48.8613" stroke="#263238" stroke-width="0.493333" stroke-miterlimit="10"/>
<path d="M315.891 46.1367C314.632 42.2374 306.206 43.6385 307.851 48.7326C309.496 53.8273 317.15 50.036 315.891 46.1367Z" fill="#263238"/>
<path d="M303.268 44.5645C303.331 42.8546 305.71 41.5389 309.072 42.1457C312.435 42.753 315.602 45.0178 315.602 45.0178C315.602 45.0178 312.277 47.0519 308.879 47.4105C305.48 47.7697 303.205 46.2828 303.268 44.5645Z" fill="#EBEBEB"/>
<path d="M315.602 45.0179C313.856 45.0298 312.113 44.9715 310.369 44.9183C308.626 44.8438 306.883 44.7747 305.143 44.6336C306.888 44.6208 308.632 44.68 310.376 44.7333C312.119 44.8083 313.862 44.8778 315.602 45.0179Z" fill="#263238"/>
<path d="M306.648 43.0505C307.154 43.2765 307.621 43.5631 308.091 43.8443C308.55 44.1443 309.012 44.4393 309.436 44.795C308.931 44.5695 308.463 44.2829 307.993 44.0007C307.534 43.7012 307.073 43.4062 306.648 43.0505Z" fill="#263238"/>
<path d="M311.22 44.8572C310.778 45.2326 310.297 45.5478 309.82 45.868C309.33 46.1699 308.844 46.4773 308.319 46.7235C308.761 46.348 309.242 46.0323 309.719 45.7126C310.208 45.4107 310.695 45.1043 311.22 44.8572Z" fill="#263238"/>
<path d="M311.726 43.8943C311.986 44.0063 312.202 44.1735 312.421 44.3368C312.627 44.5164 312.837 44.6915 313.001 44.9229C312.74 44.8114 312.524 44.6437 312.305 44.4804C312.1 44.3003 311.89 44.1247 311.726 43.8943Z" fill="#263238"/>
<path d="M306.475 54.7224C307.526 56.0727 310.225 55.7485 312.598 53.2898C314.97 50.8305 316.215 47.1414 316.215 47.1414C316.215 47.1414 312.328 47.4359 309.362 49.1325C306.395 50.8285 305.419 53.3657 306.475 54.7224Z" fill="#EBEBEB"/>
<path d="M316.214 47.1409C314.791 48.1522 313.411 49.2193 312.028 50.2824C310.658 51.3623 309.284 52.4378 307.955 53.5695C309.379 52.5587 310.759 51.4911 312.141 50.428C313.511 49.348 314.885 48.2726 316.214 47.1409Z" fill="#263238"/>
<path d="M310.101 53.9733C310.378 53.4943 310.589 52.9891 310.807 52.4854C311.003 51.9738 311.206 51.4642 311.341 50.928C311.064 51.4065 310.852 51.9122 310.635 52.4159C310.439 52.9275 310.237 53.4371 310.101 53.9733Z" fill="#263238"/>
<path d="M312.742 49.8357C312.164 49.7899 311.59 49.815 311.015 49.8343C310.442 49.8752 309.868 49.9107 309.298 50.0178C309.876 50.0641 310.45 50.039 311.025 50.0193C311.598 49.9778 312.172 49.9418 312.742 49.8357Z" fill="#263238"/>
<path d="M313.729 50.3194C313.874 50.0762 313.952 49.8142 314.034 49.5538C314.096 49.2874 314.164 49.0229 314.162 48.7393C314.015 48.9825 313.938 49.2444 313.856 49.5049C313.794 49.7713 313.727 50.0362 313.729 50.3194Z" fill="#263238"/>
<path d="M315.891 46.1367C315.114 46.3873 314.28 45.9611 314.03 45.1841C313.779 44.4071 314.205 43.5743 314.982 43.3232C315.758 43.0721 316.592 43.4988 316.843 44.2758C317.094 45.0528 316.668 45.8861 315.891 46.1367Z" fill="#455A64"/>
<path d="M316.797 48.9588C316.02 49.2094 315.187 48.7832 314.936 48.0062C314.685 47.2292 315.112 46.3964 315.889 46.1453C316.666 45.8947 317.499 46.3209 317.75 47.0979C318 47.8744 317.574 48.7077 316.797 48.9588Z" fill="#455A64"/>
<path d="M155.062 47.6941C154.355 54.4473 148.305 59.3515 141.553 58.6451C138.823 58.3594 136.397 57.2011 134.519 55.471L128.367 56.3738L131.445 51.0556C130.698 49.2387 130.384 47.2165 130.601 45.1352C131.308 38.3819 137.358 33.4777 144.111 34.1841C150.864 34.8906 155.768 40.9408 155.062 47.6941Z" fill="white"/>
<path d="M155.062 47.6941C154.805 49.9388 153.984 52.1391 152.58 53.9269C152.258 54.3951 151.842 54.7863 151.466 55.2101C151.039 55.582 150.64 55.9905 150.168 56.3087C149.269 57.0014 148.258 57.5445 147.202 57.9604C146.151 58.4029 145.02 58.6141 143.892 58.7497C143.323 58.7803 142.754 58.8321 142.184 58.7823C141.613 58.7695 141.044 58.7083 140.482 58.6052C138.232 58.1977 136.101 57.1444 134.399 55.6018L134.545 55.6467L128.399 56.5899L127.953 56.6585L128.179 56.2653L131.239 50.9368L131.224 51.147C129.734 47.6374 130.07 43.4579 131.982 40.1876C132.935 38.5502 134.264 37.1393 135.833 36.087C137.4 35.0317 139.219 34.3702 141.08 34.1181C142.944 33.8709 144.861 34.0406 146.641 34.6317C148.418 35.2301 150.047 36.2365 151.382 37.5394C154.096 40.12 155.461 43.9917 155.062 47.6941ZM155.062 47.6941C155.436 43.9887 154.044 40.1407 151.328 37.5946C149.98 36.3213 148.348 35.3569 146.586 34.7969C144.822 34.2449 142.935 34.1132 141.118 34.387C139.302 34.6657 137.543 35.3421 136.039 36.3929C134.54 37.4461 133.274 38.8235 132.361 40.4056C131.429 41.9843 130.946 43.7929 130.8 45.6083C130.685 47.4297 130.982 49.2733 131.665 50.9649L131.71 51.0749L131.651 51.1756L128.555 56.4829L128.335 56.1582L134.493 55.2959L134.578 55.2841L134.638 55.3408C136.266 56.8687 138.325 57.9352 140.526 58.3738C141.076 58.4848 141.633 58.5544 142.194 58.5766C142.754 58.6358 143.315 58.5943 143.877 58.5741C144.99 58.4597 146.113 58.2712 147.161 57.8509C148.213 57.4567 149.231 56.9402 150.127 56.2525C150.599 55.9392 150.997 55.5362 151.425 55.1686C151.803 54.7498 152.22 54.363 152.544 53.8988C153.954 52.1267 154.789 49.9373 155.062 47.6941Z" fill="#263238"/>
<path d="M136.82 52.1479C136.82 51.4138 137.33 50.8835 138.023 50.8835C138.757 50.8835 139.226 51.4138 139.226 52.1479C139.226 52.8618 138.757 53.4118 138.023 53.4118C137.31 53.4118 136.82 52.8613 136.82 52.1479ZM137.33 49.2318L137.044 39.4446H139.002L138.716 49.2318H137.33Z" fill="#C12127"/>
<path d="M141.525 52.1496C141.525 51.4155 142.035 50.8852 142.729 50.8852C143.463 50.8852 143.932 51.4155 143.932 52.1496C143.932 52.8635 143.463 53.4135 142.729 53.4135C142.015 53.4135 141.525 52.863 141.525 52.1496ZM142.035 49.2335L141.75 39.4463H143.707L143.422 49.2335H142.035Z" fill="#C12127"/>
<path d="M146.201 52.1479C146.201 51.4138 146.71 50.8835 147.404 50.8835C148.138 50.8835 148.607 51.4138 148.607 52.1479C148.607 52.8618 148.138 53.4118 147.404 53.4118C146.69 53.4118 146.201 52.8613 146.201 52.1479ZM146.711 49.2318L146.425 39.4446H148.383L148.098 49.2318H146.711Z" fill="#C12127"/>
</svg>
