<svg width="40" height="40" viewBox="0 0 40 40" fill="none" xmlns="http://www.w3.org/2000/svg">
<path d="M37.6 6.3999H2.4C1.0768 6.3999 0 7.4767 0 8.7999V31.1999C0 32.5231 1.0768 33.5999 2.4 33.5999H37.6C38.9232 33.5999 40 32.5231 40 31.1999V8.7999C40 7.4767 38.9232 6.3999 37.6 6.3999ZM38.4 31.1999C38.4 31.6399 38.04 31.9999 37.6 31.9999H2.4C1.95844 31.9999 1.6 31.6399 1.6 31.1999V8.7999C1.6 8.35826 1.95844 7.9999 2.4 7.9999H37.6C38.04 7.9999 38.4 8.35826 38.4 8.7999V31.1999Z" fill="white"/>
<path d="M0.800049 13.5999H39.2001V16.7999H0.800049V13.5999Z" fill="white"/>
<path d="M39.2 12.7998H0.8C0.358437 12.7998 0 13.1582 0 13.5998V16.7998C0 17.2414 0.358437 17.5998 0.8 17.5998H39.2C39.6416 17.5998 40 17.2414 40 16.7998V13.5998C40 13.1582 39.6416 12.7998 39.2 12.7998ZM38.4 15.9998H1.6V14.3998H38.4V15.9998ZM21.6 22.3998H7.2C6.75844 22.3998 6.4 22.7582 6.4 23.1998C6.4 23.6414 6.75844 23.9998 7.2 23.9998H21.6C22.0416 23.9998 22.4 23.6414 22.4 23.1998C22.4 22.7582 22.0416 22.3998 21.6 22.3998ZM15.2 25.5998H7.2C6.75844 25.5998 6.4 25.9582 6.4 26.3998C6.4 26.8414 6.75844 27.1998 7.2 27.1998H15.2C15.6416 27.1998 16 26.8414 16 26.3998C16 25.9582 15.6416 25.5998 15.2 25.5998Z" fill="white"/>
</svg>
