<svg width="48" height="48" viewBox="0 0 48 48" fill="none" xmlns="http://www.w3.org/2000/svg">
<rect x="0.5" y="0.5" width="47" height="47" rx="23.5" fill="black" stroke="#DCDCDC"/>
<path d="M18.7886 14.267L20.2115 13.8385C20.8592 13.6431 21.5559 13.69 22.1715 13.9706C22.7871 14.2512 23.2795 14.7463 23.5569 15.3633L24.4424 17.333C24.6809 17.8637 24.7474 18.4557 24.6324 19.026C24.5174 19.5963 24.2268 20.1163 23.8012 20.513L22.2541 21.9556C22.2349 21.9735 22.2193 21.9947 22.2078 22.0182C22.0458 22.349 22.2918 23.2327 23.0624 24.5682C23.9315 26.0733 24.6026 26.6682 24.9138 26.5765L26.9444 25.955C27.5005 25.7852 28.0958 25.7937 28.6468 25.9792C29.1979 26.1647 29.6771 26.518 30.0172 26.9896L31.2755 28.7322C31.6705 29.2793 31.8535 29.9513 31.7905 30.6232C31.7274 31.2951 31.4226 31.9212 30.9326 32.3853L29.8501 33.4096C29.4736 33.7662 29.0165 34.0264 28.5177 34.1681C28.0189 34.3097 27.4932 34.3286 26.9855 34.223C23.9709 33.5956 21.2701 31.1682 18.8598 26.9939C16.4486 22.817 15.6969 19.2599 16.6655 16.3345C16.8276 15.8447 17.1053 15.4011 17.475 15.0413C17.8447 14.6815 18.2947 14.4159 18.7886 14.267ZM19.1615 15.4979C18.8651 15.5872 18.5946 15.7465 18.3727 15.9623C18.1509 16.1782 17.9842 16.4443 17.8869 16.7382C17.0521 19.259 17.7284 22.4613 19.9741 26.351C22.2181 30.2382 24.6506 32.4239 27.2486 32.9639C27.5533 33.0271 27.8687 33.0157 28.1679 32.9306C28.4672 32.8455 28.7414 32.6893 28.9672 32.4753L30.0489 31.4519C30.3128 31.2021 30.4771 30.8649 30.5111 30.5031C30.5452 30.1413 30.4467 29.7794 30.2341 29.4847L28.9758 27.7413C28.7927 27.4874 28.5347 27.2972 28.238 27.1973C27.9414 27.0974 27.6209 27.0928 27.3215 27.1842L25.2858 27.8073C24.1595 28.1425 23.1001 27.2039 21.9498 25.2102C20.9752 23.5233 20.6375 22.3045 21.0541 21.4533C21.1346 21.2887 21.2444 21.1405 21.3781 21.0153L22.9252 19.5727C23.1544 19.3591 23.311 19.0791 23.373 18.7719C23.4349 18.4648 23.3991 18.1459 23.2706 17.8602L22.3844 15.8913C22.235 15.559 21.9698 15.2923 21.6382 15.1412C21.3067 14.9901 20.9315 14.9649 20.5826 15.0702L19.1615 15.4979Z" fill="white"/>
</svg>
