<svg width="40" height="40" viewBox="0 0 40 40" fill="none" xmlns="http://www.w3.org/2000/svg">
<g clip-path="url(#clip0_103_787)">
<path d="M8.15077 26.5893C12.0961 31.3054 16.8453 35.0187 22.266 37.6461C24.3298 38.6241 27.0898 39.7845 30.1649 39.9834C30.3555 39.9917 30.5378 40 30.7285 40C32.7923 40 34.45 39.2872 35.801 37.8201C35.8093 37.8119 35.8259 37.7953 35.8341 37.7787C36.3149 37.1985 36.8619 36.6763 37.4338 36.121C37.8234 35.748 38.2212 35.3585 38.6025 34.9606C40.3679 33.1206 40.3679 30.7833 38.5859 29.0012L33.6046 24.0199C32.7591 23.1413 31.7479 22.6772 30.687 22.6772C29.6261 22.6772 28.6066 23.1413 27.7363 24.0116L24.7691 26.9789C24.4956 26.8214 24.2138 26.6805 23.9485 26.5479C23.617 26.3821 23.3103 26.2246 23.0368 26.0506C20.3348 24.3349 17.8814 22.097 15.5358 19.2209C14.3505 17.7207 13.5548 16.4608 12.9995 15.1761C13.7786 14.4716 14.508 13.7339 15.2125 13.0128C15.4612 12.7559 15.7181 12.499 15.9751 12.242C16.8702 11.3469 17.3509 10.3108 17.3509 9.25818C17.3509 8.20555 16.8785 7.1695 15.9751 6.27435L13.5051 3.80439C13.215 3.5143 12.9415 3.23249 12.6597 2.9424C12.1126 2.37878 11.5407 1.79859 10.9771 1.27642C10.1234 0.439287 9.12052 0 8.0596 0C7.00697 0 5.99578 0.439287 5.10891 1.28471L2.00904 4.38458C0.88181 5.51181 0.243601 6.8794 0.110986 8.46249C-0.0464947 10.4434 0.318197 12.5487 1.26308 15.0932C2.71355 19.0303 4.9017 22.6855 8.15077 26.5893ZM2.13336 8.63655C2.23283 7.53419 2.65554 6.61417 3.45123 5.81848L6.53452 2.73518C7.01525 2.27103 7.54571 2.03067 8.0596 2.03067C8.56519 2.03067 9.07907 2.27103 9.55152 2.75176C10.1068 3.26564 10.629 3.80439 11.1926 4.3763C11.4744 4.66639 11.7645 4.95649 12.0546 5.25487L14.5246 7.72482C15.0385 8.23871 15.3037 8.76088 15.3037 9.27476C15.3037 9.78864 15.0385 10.3108 14.5246 10.8247C14.2676 11.0816 14.0107 11.3469 13.7538 11.6038C12.9829 12.3829 12.2618 13.1206 11.4661 13.8251L11.4247 13.8666C10.7368 14.5545 10.8445 15.2093 11.0103 15.7066C11.0186 15.7315 11.0269 15.748 11.0351 15.7729C11.6734 17.3063 12.5602 18.765 13.9444 20.5056C16.4309 23.5723 19.0501 25.9511 21.9344 27.7828C22.2908 28.0149 22.6721 28.1973 23.0285 28.3796C23.3601 28.5454 23.6667 28.7029 23.9402 28.8769C23.9734 28.8935 23.9983 28.9101 24.0314 28.9266C24.3049 29.0676 24.5702 29.1339 24.8354 29.1339C25.4985 29.1339 25.9295 28.7111 26.0704 28.5702L29.1702 25.4704C29.651 24.9896 30.1731 24.7327 30.687 24.7327C31.317 24.7327 31.8308 25.1223 32.1541 25.4704L37.152 30.46C38.1466 31.4546 38.1383 32.5321 37.1271 33.5848C36.779 33.9577 36.4143 34.3141 36.0248 34.6871C35.4446 35.2507 34.8395 35.8309 34.2925 36.4857C33.3393 37.5135 32.2038 37.9942 30.7368 37.9942C30.5959 37.9942 30.4467 37.9859 30.3058 37.9776C27.5872 37.8036 25.0592 36.7426 23.1611 35.8392C18.0057 33.3444 13.4802 29.8052 9.72557 25.3129C6.63399 21.5914 4.55359 18.1268 3.17771 14.4136C2.324 12.1343 2.00075 10.3025 2.13336 8.63655Z" fill="white"/>
</g>
<defs>
<clipPath id="clip0_103_787">
<rect width="40" height="40" fill="white"/>
</clipPath>
</defs>
</svg>
