<svg width="30" height="29" viewBox="0 0 30 29" fill="none" xmlns="http://www.w3.org/2000/svg">
<path d="M24.1184 28.4914C23.0511 29.2516 16.2028 24.4326 14.8912 24.422C13.5796 24.4115 6.6542 29.1197 5.59935 28.3424C4.5445 27.5651 7.0244 19.5813 6.6292 18.3343C6.234 17.0872 -0.396629 11.9743 0.018718 10.7337C0.434156 9.49315 8.81509 9.37792 9.88239 8.61771C10.9497 7.85758 13.7772 -0.0104898 15.0889 1.05002e-05C16.4004 0.0106021 19.1001 7.92314 20.155 8.70043C21.2098 9.47763 29.5879 9.72781 29.9832 10.9749C30.3784 12.2219 23.666 17.2275 23.2506 18.468C22.8352 19.7086 25.1857 27.7312 24.1184 28.4914Z" fill="#C12127"/>
</svg>
