<svg width="25" height="25" viewBox="0 0 25 25" fill="none" xmlns="http://www.w3.org/2000/svg">
<path fill-rule="evenodd" clip-rule="evenodd" d="M12.2279 2.08325C17.8217 2.08325 22.3717 6.63325 22.3717 12.227C22.3717 14.8661 21.3589 17.2731 19.7015 19.0796L22.9627 22.334C23.2679 22.6392 23.269 23.1329 22.9638 23.4381C22.8117 23.5923 22.6106 23.6684 22.4106 23.6684C22.2117 23.6684 22.0117 23.5923 21.8585 23.4402L18.558 20.1489C16.8217 21.5393 14.6203 22.3718 12.2279 22.3718C6.63417 22.3718 2.08313 17.8208 2.08313 12.227C2.08313 6.63325 6.63417 2.08325 12.2279 2.08325ZM12.2279 3.64575C7.49563 3.64575 3.64563 7.49471 3.64563 12.227C3.64563 16.9593 7.49563 20.8093 12.2279 20.8093C16.9592 20.8093 20.8092 16.9593 20.8092 12.227C20.8092 7.49471 16.9592 3.64575 12.2279 3.64575Z" fill="white"/>
</svg>
