<svg width="186" height="181" viewBox="0 0 186 181" fill="none" xmlns="http://www.w3.org/2000/svg">
<circle cx="93" cy="80.5" r="80" fill="#B10B0B" fill-opacity="0.3"/>
<circle cx="93" cy="80.5" r="70" fill="#B10B0B" fill-opacity="0.5"/>
<circle cx="93" cy="80.5" r="60" fill="#B10B0B"/>
<path d="M87.7109 107.226H87.6813C87.4899 107.222 87.3012 107.18 87.1267 107.101C86.9521 107.023 86.7953 106.909 86.6656 106.769L59.875 77.6373C59.6522 77.3951 59.5204 77.083 59.5022 76.7544C59.4839 76.4258 59.5804 76.1011 59.775 75.8357C59.9697 75.5704 60.2504 75.3808 60.5693 75.2994C60.8881 75.2179 61.2253 75.2495 61.5234 75.3888L86.0438 86.8701C86.25 86.967 86.4938 86.9201 86.6516 86.756L124.055 47.6638C124.561 47.1342 125.389 47.0763 125.964 47.5326C126.539 47.9888 126.672 48.8076 126.27 49.4217L89.0641 106.419C89.011 106.501 88.9485 106.576 88.8797 106.647L88.7156 106.811C88.4486 107.076 88.0875 107.226 87.7109 107.226Z" fill="white"/>
</svg>
